<?xml version="1.0" encoding="UTF-8" standalone="no"?><svg xmlns="http://www.w3.org/2000/svg" xmlns:xlink="http://www.w3.org/1999/xlink" contentScriptType="application/ecmascript" contentStyleType="text/css" height="329px" preserveAspectRatio="none" style="width:315px;height:329px;" version="1.1" viewBox="0 0 315 329" width="315px" zoomAndPan="magnify"><defs/><g><!--cluster westures-core--><path d="M25,38 L121,38 A4.5,4.5 0 0 1 124,41 L131,58.4844 L230,58.4844 A3,3 0 0 1 233,61.4844 L233,314 A3,3 0 0 1 230,317 L25,317 A3,3 0 0 1 22,314 L22,41 A3,3 0 0 1 25,38 " fill="#FFFFFF" style="stroke: #000000; stroke-width: 1.5;"/><line style="stroke: #000000; stroke-width: 1.5;" x1="22" x2="131" y1="58.4844" y2="58.4844"/><text fill="#000000" font-family="Tahoma, sans-serif" font-size="12" font-weight="bold" lengthAdjust="spacingAndGlyphs" textLength="96" x="26" y="52.0059">westures-core</text><ellipse cx="181.8198" cy="135.242" fill="#F8F8F8" rx="34.8198" ry="13.242" style="stroke: #383838; stroke-width: 0.5;"/><text fill="#000000" font-family="Tahoma, sans-serif" font-size="12" lengthAdjust="spacingAndGlyphs" textLength="45" x="159.3198" y="138.9842">Gesture</text><ellipse cx="129.2132" cy="186.242" fill="#F8F8F8" rx="24.2132" ry="13.242" style="stroke: #383838; stroke-width: 0.5;"/><text fill="#000000" font-family="Tahoma, sans-serif" font-size="12" lengthAdjust="spacingAndGlyphs" textLength="30" x="114.2132" y="189.9842">Input</text><ellipse cx="78.163" cy="288.242" fill="#F8F8F8" rx="29.163" ry="13.242" style="stroke: #383838; stroke-width: 0.5;"/><text fill="#000000" font-family="Tahoma, sans-serif" font-size="12" lengthAdjust="spacingAndGlyphs" textLength="37" x="59.663" y="291.9842">PHASE</text><ellipse cx="181.8198" cy="288.242" fill="#F8F8F8" rx="34.8198" ry="13.242" style="stroke: #383838; stroke-width: 0.5;"/><text fill="#000000" font-family="Tahoma, sans-serif" font-size="12" lengthAdjust="spacingAndGlyphs" textLength="45" x="159.3198" y="291.9842">Point2D</text><ellipse cx="141.8762" cy="237.242" fill="#F8F8F8" rx="50.3762" ry="13.242" style="stroke: #383838; stroke-width: 0.5;"/><text fill="#000000" font-family="Tahoma, sans-serif" font-size="12" lengthAdjust="spacingAndGlyphs" textLength="67" x="108.3762" y="240.9842">PointerData</text><ellipse cx="186.0772" cy="84.242" fill="#F8F8F8" rx="30.5772" ry="13.242" style="stroke: #383838; stroke-width: 0.5;"/><text fill="#000000" font-family="Tahoma, sans-serif" font-size="12" lengthAdjust="spacingAndGlyphs" textLength="39" x="166.5772" y="87.9842">Region</text><ellipse cx="90.9975" cy="84.242" fill="#F8F8F8" rx="52.4975" ry="13.242" style="stroke: #383838; stroke-width: 0.5;"/><text fill="#000000" font-family="Tahoma, sans-serif" font-size="12" lengthAdjust="spacingAndGlyphs" textLength="70" x="55.9975" y="87.9842">Smoothable</text><ellipse cx="111.2132" cy="135.242" fill="#F8F8F8" rx="24.2132" ry="13.242" style="stroke: #383838; stroke-width: 0.5;"/><text fill="#000000" font-family="Tahoma, sans-serif" font-size="12" lengthAdjust="spacingAndGlyphs" textLength="30" x="96.2132" y="138.9842">State</text><ellipse cx="277.2487" cy="84.242" fill="#F8F8F8" rx="27.7487" ry="13.242" style="stroke: #383838; stroke-width: 0.5;"/><text fill="#000000" font-family="Tahoma, sans-serif" font-size="12" font-weight="bold" lengthAdjust="spacingAndGlyphs" textLength="35" x="259.7487" y="87.9842">index</text><!--link <b>index</b> to Gesture--><path d="M259.131,94.217 C244.098,101.971 222.471,113.126 205.941,121.652 " fill="none" id="&lt;b&gt;index&lt;/b&gt;-Gesture" style="stroke: #000000; stroke-width: 1.0;"/><polygon fill="#000000" points="201.423,123.982,211.2554,123.4129,205.8671,121.6907,207.5893,116.3024,201.423,123.982" style="stroke: #000000; stroke-width: 1.0;"/><!--link <b>index</b> to Point2D--><path d="M272.338,96.828 C261.411,124.242 232.878,194.052 204,250 C200.449,256.8796 196.169,264.2502 192.332,270.5878 " fill="none" id="&lt;b&gt;index&lt;/b&gt;-Point2D" style="stroke: #000000; stroke-width: 1.0;"/><polygon fill="#000000" points="189.504,275.2077,197.615,269.6209,192.1149,270.9435,190.7923,265.4435,189.504,275.2077" style="stroke: #000000; stroke-width: 1.0;"/><!--link <b>index</b> to Region--><path d="M249.146,84 C239.984,84 230.822,84 221.66,84 " fill="none" id="&lt;b&gt;index&lt;/b&gt;-Region" style="stroke: #000000; stroke-width: 1.0;"/><polygon fill="#000000" points="216.57,84,225.57,88,221.57,84,225.57,80,216.57,84" style="stroke: #000000; stroke-width: 1.0;"/><!--link <b>index</b> to Smoothable--><path d="M270.8,71.042 C262.324,55.026 245.452,28.537 222,17.5 C195.057,4.82 182.401,5.842 155,17.5 C131.685,27.42 112.753,50.459 101.6864,66.624 " fill="none" id="&lt;b&gt;index&lt;/b&gt;-Smoothable" style="stroke: #000000; stroke-width: 1.0;"/><polygon fill="#000000" points="98.7764,70.984,107.0997,65.7187,101.5521,66.8252,100.4456,61.2776,98.7764,70.984" style="stroke: #000000; stroke-width: 1.0;"/><!--link Input to PointerData--><path d="M132.213,199.112 C133.764,204.958 135.654,212.079 137.357,218.501 " fill="none" id="Input-PointerData" style="stroke: #000000; stroke-width: 0.5; stroke-dasharray: 7.0,7.0;"/><polygon fill="#000000" points="138.733,223.687,140.2901,213.962,137.4502,218.8544,132.5578,216.0145,138.733,223.687" style="stroke: #000000; stroke-width: 0.5;"/><!--link PointerData to PHASE--><path d="M126.833,249.6123 C117.518,256.7441 105.5427,265.9126 95.7824,273.3853 " fill="none" id="PointerData-PHASE" style="stroke: #000000; stroke-width: 0.5; stroke-dasharray: 7.0,7.0;"/><polygon fill="#000000" points="91.7493,276.4732,101.327,274.1779,95.7193,273.4336,96.4636,267.8259,91.7493,276.4732" style="stroke: #000000; stroke-width: 0.5;"/><!--link PointerData to Point2D--><path d="M151.683,249.8615 C156.891,256.2414 163.384,264.1959 169.024,271.1046 " fill="none" id="PointerData-Point2D" style="stroke: #000000; stroke-width: 0.5; stroke-dasharray: 7.0,7.0;"/><polygon fill="#000000" points="172.406,275.2477,169.8128,265.7464,169.2439,271.3746,163.6157,270.8057,172.406,275.2477" style="stroke: #000000; stroke-width: 0.5;"/><!--link Region to Gesture--><path d="M185.011,97.112 C184.534,102.958 183.953,110.079 183.429,116.501 " fill="none" id="Region-Gesture" style="stroke: #000000; stroke-width: 0.5; stroke-dasharray: 7.0,7.0;"/><polygon fill="#000000" points="183.005,121.687,187.7246,113.0426,183.4122,116.7036,179.7512,112.3911,183.005,121.687" style="stroke: #000000; stroke-width: 0.5;"/><!--link Region to PHASE--><path d="M163.048,92.726 C132.531,103.05 82.2595,120.257 81,122 C48.6625,166.745 63.3062,237.613 72.5267,269.9277 " fill="none" id="Region-PHASE" style="stroke: #000000; stroke-width: 0.5; stroke-dasharray: 7.0,7.0;"/><polygon fill="#000000" points="73.9519,274.7731,75.2496,265.0101,72.5409,269.9763,67.5747,267.2677,73.9519,274.7731" style="stroke: #000000; stroke-width: 0.5;"/><!--link Region to State--><path d="M170.094,95.392 C158.452,102.998 142.598,113.356 130.242,121.429 " fill="none" id="Region-State" style="stroke: #000000; stroke-width: 0.5; stroke-dasharray: 7.0,7.0;"/><polygon fill="#000000" points="125.862,124.29,135.5844,122.7167,130.048,121.5555,131.2092,116.0191,125.862,124.29" style="stroke: #000000; stroke-width: 0.5;"/><!--link State to Input--><path d="M115.357,147.862 C117.579,153.91 120.321,161.375 122.763,168.021 " fill="none" id="State-Input" style="stroke: #000000; stroke-width: 0.5; stroke-dasharray: 7.0,7.0;"/><polygon fill="#000000" points="124.558,172.907,125.2086,163.0797,122.8336,168.2138,117.6995,165.8387,124.558,172.907" style="stroke: #000000; stroke-width: 0.5;"/><!--link State to PHASE--><path d="M106.97,147.954 C104.5719,155.18 101.5168,164.59 99,173 C92.2614,195.519 89.4226,200.915 85,224 C82.0649,239.3207 80.234,256.9905 79.1844,269.7106 " fill="none" id="State-PHASE" style="stroke: #000000; stroke-width: 0.5; stroke-dasharray: 7.0,7.0;"/><polygon fill="#000000" points="78.7815,274.8378,83.4745,266.179,79.1734,269.8532,75.4992,265.552,78.7815,274.8378" style="stroke: #000000; stroke-width: 0.5;"/><!--link State to Point2D--><path d="M126.531,145.209 C148.047,159.064 185.669,187.575 198,224 C203.239,239.4754 197.435,257.597 191.402,270.4219 " fill="none" id="State-Point2D" style="stroke: #000000; stroke-width: 0.5; stroke-dasharray: 7.0,7.0;"/><polygon fill="#000000" points="189.013,275.2306,196.5999,268.9506,191.2379,270.7529,189.4356,265.3908,189.013,275.2306" style="stroke: #000000; stroke-width: 0.5;"/><script type="text/plantuml"><![CDATA[
@startuml

scale max 1920 width
top to bottom direction

skinparam nodesep 12
skinparam ranksep 25
skinparam monochrome true
skinparam shadowing false
skinparam defaultFontName Tahoma
skinparam defaultFontSize 12
skinparam roundCorner 6
skinparam dpi 150
skinparam arrowColor black
skinparam arrowThickness 0.5
skinparam packageTitleAlignment left

skinparam usecase {
  borderThickness 0.5
}

skinparam rectangle {
  borderThickness 0.5
}

skinparam component {
  borderThickness 1
}


(<b>index</b>)

package "westures-core" {
  (Gesture)
  (Input)
  (PHASE)
  (Point2D)
  (PointerData)
  (Region)
  (Smoothable)
  (State)
}

(<b>index</b>) -[thickness=1]> (Gesture)
(<b>index</b>) -[thickness=1]> (Point2D)
(<b>index</b>) -[thickness=1]> (Region)
(<b>index</b>) -[thickness=1]> (Smoothable)
(Input) ..> (PointerData)
(PointerData) ..> (PHASE)
(PointerData) ..> (Point2D)
(Region) ..> (Gesture)
(Region) ..> (PHASE)
(Region) ..> (State)
(State) ..> (Input)
(State) ..> (PHASE)
(State) ..> (Point2D)

@enduml


' View and edit on https://arkit.pro
]]></script></g></svg>