<?xml version="1.0" encoding="UTF-8" standalone="no"?><svg xmlns="http://www.w3.org/2000/svg" xmlns:xlink="http://www.w3.org/1999/xlink" contentScriptType="application/ecmascript" contentStyleType="text/css" height="272px" preserveAspectRatio="none" style="width:261px;height:272px;" version="1.1" viewBox="0 0 261 272" width="261px" zoomAndPan="magnify"><defs/><g><ellipse cx="33.7487" cy="40.242" fill="#F8F8F8" rx="27.7487" ry="13.242" style="stroke: #383838; stroke-width: 0.5;"/><text fill="#000000" font-family="Tahoma, sans-serif" font-size="12" font-weight="bold" lengthAdjust="spacingAndGlyphs" textLength="35" x="16.2487" y="43.9842">index</text><ellipse cx="188.6985" cy="92.242" fill="#F8F8F8" rx="32.6985" ry="13.242" style="stroke: #383838; stroke-width: 0.5;"/><text fill="#000000" font-family="Tahoma, sans-serif" font-size="12" lengthAdjust="spacingAndGlyphs" textLength="42" x="167.6985" y="95.9842">Binding</text><ellipse cx="109.3198" cy="40.242" fill="#F8F8F8" rx="34.8198" ry="13.242" style="stroke: #383838; stroke-width: 0.5;"/><text fill="#000000" font-family="Tahoma, sans-serif" font-size="12" lengthAdjust="spacingAndGlyphs" textLength="45" x="86.8198" y="43.9842">Gesture</text><ellipse cx="125.7132" cy="144.242" fill="#F8F8F8" rx="24.2132" ry="13.242" style="stroke: #383838; stroke-width: 0.5;"/><text fill="#000000" font-family="Tahoma, sans-serif" font-size="12" lengthAdjust="spacingAndGlyphs" textLength="30" x="110.7132" y="147.9842">Input</text><ellipse cx="202.663" cy="248.242" fill="#F8F8F8" rx="29.163" ry="13.242" style="stroke: #383838; stroke-width: 0.5;"/><text fill="#000000" font-family="Tahoma, sans-serif" font-size="12" lengthAdjust="spacingAndGlyphs" textLength="37" x="184.163" y="251.9842">PHASE</text><ellipse cx="60.3198" cy="248.242" fill="#F8F8F8" rx="34.8198" ry="13.242" style="stroke: #383838; stroke-width: 0.5;"/><text fill="#000000" font-family="Tahoma, sans-serif" font-size="12" lengthAdjust="spacingAndGlyphs" textLength="45" x="37.8198" y="251.9842">Point2D</text><ellipse cx="131.3762" cy="196.242" fill="#F8F8F8" rx="50.3762" ry="13.242" style="stroke: #383838; stroke-width: 0.5;"/><text fill="#000000" font-family="Tahoma, sans-serif" font-size="12" lengthAdjust="spacingAndGlyphs" textLength="67" x="97.8762" y="199.9842">PointerData</text><ellipse cx="188.5772" cy="40.242" fill="#F8F8F8" rx="30.5772" ry="13.242" style="stroke: #383838; stroke-width: 0.5;"/><text fill="#000000" font-family="Tahoma, sans-serif" font-size="12" lengthAdjust="spacingAndGlyphs" textLength="39" x="169.0772" y="43.9842">Region</text><ellipse cx="118.7132" cy="92.242" fill="#F8F8F8" rx="24.2132" ry="13.242" style="stroke: #383838; stroke-width: 0.5;"/><text fill="#000000" font-family="Tahoma, sans-serif" font-size="12" lengthAdjust="spacingAndGlyphs" textLength="30" x="103.7132" y="95.9842">State</text><!--link <b>index</b> to Gesture--><path d="M61.1094,40 C63.7282,40 66.347,40 68.9658,40 " fill="none" id="&lt;b&gt;index&lt;/b&gt;-Gesture" style="stroke: #000000; stroke-width: 1.0;"/><polygon fill="#000000" points="74.3412,40,65.3412,36,69.3412,40,65.3412,44,74.3412,40" style="stroke: #000000; stroke-width: 1.0;"/><!--link <b>index</b> to Point2D--><path d="M35.1081,53.269 C39.704,88.334 52.9063,189.0626 58.2321,229.6966 " fill="none" id="&lt;b&gt;index&lt;/b&gt;-Point2D" style="stroke: #000000; stroke-width: 1.0;"/><polygon fill="#000000" points="58.9003,234.795,61.6966,225.3515,58.2504,229.8374,53.7645,226.3912,58.9003,234.795" style="stroke: #000000; stroke-width: 1.0;"/><!--link <b>index</b> to Region--><path d="M47.1328,28.445 C54.562,22.909 64.2186,16.87 74,14 C103.853,5.242 113.97,5.87 144,14 C152.726,16.362 161.495,20.91 168.915,25.549 " fill="none" id="&lt;b&gt;index&lt;/b&gt;-Region" style="stroke: #000000; stroke-width: 1.0;"/><polygon fill="#000000" points="173.348,28.431,167.9837,20.1712,169.1564,25.7052,163.6224,26.8778,173.348,28.431" style="stroke: #000000; stroke-width: 1.0;"/><!--link Input to PointerData--><path d="M126.952,157.104 C127.693,163.2759 128.607,170.8925 129.421,177.6746 " fill="none" id="Input-PointerData" style="stroke: #000000; stroke-width: 0.55;"/><polygon fill="#000000" points="130.019,182.6605,132.9179,173.2479,129.4231,177.6961,124.9749,174.2013,130.019,182.6605" style="stroke: #000000; stroke-width: 0.55;"/><!--link PointerData to PHASE--><path d="M147.611,208.3458 C158.302,215.8749 172.378,225.7874 183.599,233.6893 " fill="none" id="PointerData-PHASE" style="stroke: #000000; stroke-width: 0.55;"/><polygon fill="#000000" points="187.902,236.7195,182.8462,228.2673,183.8138,233.8408,178.2403,234.8084,187.902,236.7195" style="stroke: #000000; stroke-width: 0.55;"/><!--link PointerData to Point2D--><path d="M115.389,208.3458 C104.9866,215.6714 91.3802,225.2534 80.3171,233.0443 " fill="none" id="PointerData-Point2D" style="stroke: #000000; stroke-width: 0.55;"/><polygon fill="#000000" points="76.0593,236.0427,85.7208,234.1309,80.1473,233.1637,81.1145,227.5902,76.0593,236.0427" style="stroke: #000000; stroke-width: 0.55;"/><!--link Region to Binding--><path d="M188.5,53.104 C188.5,59.155 188.5,66.594 188.5,73.275 " fill="none" id="Region-Binding" style="stroke: #000000; stroke-width: 0.55;"/><polygon fill="#000000" points="188.5,78.661,192.5,69.661,188.5,73.661,184.5,69.661,188.5,78.661" style="stroke: #000000; stroke-width: 0.55;"/><!--link Region to PHASE--><path d="M204.072,51.326 C212.741,58.055 222.723,67.677 227.5,79 C249.476,131.095 224.507,199.3989 210.588,230.4061 " fill="none" id="Region-PHASE" style="stroke: #000000; stroke-width: 0.55;"/><polygon fill="#000000" points="208.458,235.0541,215.844,228.5389,210.5411,230.5087,208.5713,225.2059,208.458,235.0541" style="stroke: #000000; stroke-width: 0.55;"/><!--link Region to State--><path d="M173.655,51.604 C162.789,59.365 147.992,69.935 136.459,78.172 " fill="none" id="Region-State" style="stroke: #000000; stroke-width: 0.55;"/><polygon fill="#000000" points="132.372,81.092,142.021,79.118,136.4413,78.1868,137.3726,72.6071,132.372,81.092" style="stroke: #000000; stroke-width: 0.55;"/><!--link State to Input--><path d="M120.195,105.104 C121.072,111.368 122.157,119.12 123.117,125.978 " fill="none" id="State-Input" style="stroke: #000000; stroke-width: 0.55;"/><polygon fill="#000000" points="123.821,131.008,126.5325,121.5397,123.1267,126.0564,118.61,122.6506,123.821,131.008" style="stroke: #000000; stroke-width: 0.55;"/><!--link State to PHASE--><path d="M130.15,103.745 C137.778,111.064 147.736,121.175 155.5,131 C172.471,152.476 178.083,157.688 188.5,183 C194.712,198.0933 198.358,216.3752 200.364,229.5285 " fill="none" id="State-PHASE" style="stroke: #000000; stroke-width: 0.55;"/><polygon fill="#000000" points="201.126,234.8274,203.8043,225.3497,200.4144,229.8783,195.8858,226.4883,201.126,234.8274" style="stroke: #000000; stroke-width: 0.55;"/><!--link State to Point2D--><path d="M110.539,104.298 C105.5467,111.682 99.1909,121.656 94.5,131 C83.3909,153.13 81.6107,159.281 74.5,183 C69.8702,198.4434 66.0752,216.4065 63.61,229.3642 " fill="none" id="State-Point2D" style="stroke: #000000; stroke-width: 0.55;"/><polygon fill="#000000" points="62.6364,234.589,68.2177,226.4743,63.5525,229.6736,60.3531,225.0085,62.6364,234.589" style="stroke: #000000; stroke-width: 0.55;"/><script type="text/plantuml"><![CDATA[
@startuml

scale max 1920 width
top to bottom direction

skinparam nodesep 13
skinparam ranksep 26
skinparam monochrome true
skinparam shadowing false
skinparam defaultFontName Tahoma
skinparam defaultFontSize 12
skinparam roundCorner 4
skinparam dpi 150
skinparam arrowColor black
skinparam arrowThickness 0.55
skinparam packageTitleAlignment left

skinparam usecase {
  borderThickness 0.5
}

skinparam rectangle {
  borderThickness 0.5
}

skinparam component {
  borderThickness 1
}


(<b>index</b>)
(Binding)
(Gesture)
(Input)
(PHASE)
(Point2D)
(PointerData)
(Region)
(State)

(<b>index</b>) -[thickness=1]> (Gesture)
(<b>index</b>) -[thickness=1]> (Point2D)
(<b>index</b>) -[thickness=1]> (Region)
(Input) --> (PointerData)
(PointerData) --> (PHASE)
(PointerData) --> (Point2D)
(Region) --> (Binding)
(Region) --> (PHASE)
(Region) --> (State)
(State) --> (Input)
(State) --> (PHASE)
(State) --> (Point2D)

@enduml


' View and edit on https://arkit.herokuapp.com
]]></script></g></svg>