<?xml version="1.0" encoding="UTF-8" standalone="no"?><svg xmlns="http://www.w3.org/2000/svg" xmlns:xlink="http://www.w3.org/1999/xlink" contentScriptType="application/ecmascript" contentStyleType="text/css" height="323px" preserveAspectRatio="none" style="width:432px;height:323px;" version="1.1" viewBox="0 0 432 323" width="432px" zoomAndPan="magnify"><defs/><g><!--entity _index--><rect fill="#F8F8F8" height="34.4844" rx="2" ry="2" style="stroke: #000000; stroke-width: 0.8;" width="53" x="74" y="8"/><text fill="#000000" font-family="Tahoma, sans-serif" font-size="12" font-weight="bold" lengthAdjust="spacingAndGlyphs" textLength="33" x="84" y="30.0059">index</text><!--entity _Binding--><rect fill="#F8F8F8" height="34.4844" rx="2" ry="2" style="stroke: #000000; stroke-width: 0.8;" width="59" x="362" y="116"/><text fill="#000000" font-family="Tahoma, sans-serif" font-size="12" lengthAdjust="spacingAndGlyphs" textLength="39" x="372" y="138.0059">Binding</text><!--entity _Gesture--><rect fill="#F8F8F8" height="34.4844" rx="2" ry="2" style="stroke: #000000; stroke-width: 0.8;" width="63" x="6" y="62"/><text fill="#000000" font-family="Tahoma, sans-serif" font-size="12" lengthAdjust="spacingAndGlyphs" textLength="43" x="16" y="84.0059">Gesture</text><!--entity _Input--><rect fill="#F8F8F8" height="34.4844" rx="2" ry="2" style="stroke: #000000; stroke-width: 0.8;" width="50" x="199.5" y="170"/><text fill="#000000" font-family="Tahoma, sans-serif" font-size="12" lengthAdjust="spacingAndGlyphs" textLength="30" x="209.5" y="192.0059">Input</text><!--entity _PHASE--><rect fill="#F8F8F8" height="34.4844" rx="2" ry="2" style="stroke: #000000; stroke-width: 0.8;" width="57" x="260" y="278"/><text fill="#000000" font-family="Tahoma, sans-serif" font-size="12" lengthAdjust="spacingAndGlyphs" textLength="37" x="270" y="300.0059">PHASE</text><!--entity _Point2D--><rect fill="#F8F8F8" height="34.4844" rx="2" ry="2" style="stroke: #000000; stroke-width: 0.8;" width="63" x="111" y="278"/><text fill="#000000" font-family="Tahoma, sans-serif" font-size="12" lengthAdjust="spacingAndGlyphs" textLength="43" x="121" y="300.0059">Point2D</text><!--entity _PointerData--><rect fill="#F8F8F8" height="34.4844" rx="2" ry="2" style="stroke: #000000; stroke-width: 0.8;" width="84" x="173.5" y="224"/><text fill="#000000" font-family="Tahoma, sans-serif" font-size="12" lengthAdjust="spacingAndGlyphs" textLength="64" x="183.5" y="246.0059">PointerData</text><!--entity _Region--><rect fill="#F8F8F8" height="34.4844" rx="2" ry="2" style="stroke: #000000; stroke-width: 0.8;" width="57" x="270" y="62"/><text fill="#000000" font-family="Tahoma, sans-serif" font-size="12" lengthAdjust="spacingAndGlyphs" textLength="37" x="280" y="84.0059">Region</text><!--entity _State--><rect fill="#F8F8F8" height="34.4844" rx="2" ry="2" style="stroke: #000000; stroke-width: 0.8;" width="50" x="224.5" y="116"/><text fill="#000000" font-family="Tahoma, sans-serif" font-size="12" lengthAdjust="spacingAndGlyphs" textLength="30" x="234.5" y="138.0059">State</text><!--link _index to _Gesture--><path d="M80.5664,42.0859 C74.4764,47.3059 67.7166,53.1001 61.392,58.5212 " fill="none" id="_index-_Gesture" style="stroke: #383838; stroke-width: 2.0;"/><polygon fill="#383838" points="57.5202,61.8399,66.9567,59.0197,61.3165,58.5859,61.7503,52.9457,57.5202,61.8399" style="stroke: #383838; stroke-width: 2.0;"/><!--link _index to _Point2D--><path d="M100.5,42.2085 C100.5,63.5208 100.5,100.9375 100.5,133 C100.5,133 100.5,133 100.5,187 C100.5,218.7415 116.4536,252.3809 128.6958,273.5218 " fill="none" id="_index-_Point2D" style="stroke: #383838; stroke-width: 2.0;"/><polygon fill="#383838" points="131.2448,277.8381,130.1126,268.0545,128.7023,273.5328,123.2241,272.1225,131.2448,277.8381" style="stroke: #383838; stroke-width: 2.0;"/><!--link _index to _Region--><path d="M127.2032,32.2827 C162.8639,42.0083 226.0428,59.2389 264.8996,69.8362 " fill="none" id="_index-_Region" style="stroke: #383838; stroke-width: 2.0;"/><polygon fill="#383838" points="269.9816,71.2222,262.3512,64.9951,265.1578,69.9066,260.2463,72.7132,269.9816,71.2222" style="stroke: #383838; stroke-width: 2.0;"/><!--link _Input to _PointerData--><path d="M221.6523,204.0859 C220.8808,208.715 220.0341,213.7956 219.2222,218.6671 " fill="none" id="_Input-_PointerData" style="stroke: #383838; stroke-width: 0.7;"/><polygon fill="#383838" points="218.36,223.8399,223.7852,215.62,219.182,218.9079,215.894,214.3048,218.36,223.8399" style="stroke: #383838; stroke-width: 0.7;"/><!--link _PointerData to _PHASE--><path d="M238.5977,258.0859 C245.7875,263.4044 253.783,269.3189 261.2299,274.8276 " fill="none" id="_PointerData-_PHASE" style="stroke: #383838; stroke-width: 0.7;"/><polygon fill="#383838" points="265.302,277.8399,260.4454,269.2717,261.2823,274.8663,255.6877,275.7033,265.302,277.8399" style="stroke: #383838; stroke-width: 0.7;"/><!--link _PointerData to _Point2D--><path d="M192.4023,258.0859 C185.2125,263.4044 177.217,269.3189 169.7701,274.8276 " fill="none" id="_PointerData-_Point2D" style="stroke: #383838; stroke-width: 0.7;"/><polygon fill="#383838" points="165.698,277.8399,175.3123,275.7033,169.7177,274.8663,170.5546,269.2717,165.698,277.8399" style="stroke: #383838; stroke-width: 0.7;"/><!--link _Region to _Binding--><path d="M327.1619,95.6424 C336.7886,101.2321 347.6175,107.5198 357.6068,113.3201 " fill="none" id="_Region-_Binding" style="stroke: #383838; stroke-width: 0.7;"/><polygon fill="#383838" points="362.1301,115.9465,356.3555,107.9681,357.8062,113.4358,352.3385,114.8864,362.1301,115.9465" style="stroke: #383838; stroke-width: 0.7;"/><!--link _Region to _PHASE--><path d="M298.3492,96.0516 C297.974,127.906 296.7003,198.6036 292.5,258 C292.1653,262.733 291.6935,267.7953 291.1907,272.6086 " fill="none" id="_Region-_PHASE" style="stroke: #383838; stroke-width: 0.7;"/><polygon fill="#383838" points="290.6381,277.7063,295.585,269.1899,291.1771,272.7354,287.6316,268.3276,290.6381,277.7063" style="stroke: #383838; stroke-width: 0.7;"/><!--link _Region to _State--><path d="M282.9961,96.0859 C278.4382,101.109 273.3978,106.6636 268.6409,111.9059 " fill="none" id="_Region-_State" style="stroke: #383838; stroke-width: 0.7;"/><polygon fill="#383838" points="265.0712,115.8399,274.0814,111.8628,268.4311,112.1371,268.1569,106.4869,265.0712,115.8399" style="stroke: #383838; stroke-width: 0.7;"/><!--link _State to _Input--><path d="M241.5898,150.0859 C239.3556,154.912 236.8941,160.2288 234.552,165.2878 " fill="none" id="_State-_Input" style="stroke: #383838; stroke-width: 0.7;"/><polygon fill="#383838" points="232.4445,169.8399,239.8555,163.3533,234.5452,165.3026,232.5958,159.9922,232.4445,169.8399" style="stroke: #383838; stroke-width: 0.7;"/><!--link _State to _PHASE--><path d="M254.3095,150.2838 C255.9995,156.4887 257.8798,163.5462 259.5,170 C268.5144,205.9069 278.0457,247.8694 283.6243,272.8951 " fill="none" id="_State-_PHASE" style="stroke: #383838; stroke-width: 0.7;"/><polygon fill="#383838" points="284.7531,277.9699,286.7034,268.3161,283.6674,273.0892,278.8943,270.0532,284.7531,277.9699" style="stroke: #383838; stroke-width: 0.7;"/><!--link _State to _Point2D--><path d="M224.4193,144.3117 C212.6705,150.5732 199.1674,159.2725 189.5,170 C162.8718,199.5481 150.8255,245.6323 145.7758,272.8179 " fill="none" id="_State-_Point2D" style="stroke: #383838; stroke-width: 0.7;"/><polygon fill="#383838" points="144.8569,277.9926,150.369,269.8307,145.7312,273.0696,142.4922,268.4318,144.8569,277.9926" style="stroke: #383838; stroke-width: 0.7;"/><script type="text/plantuml"><![CDATA[
@startuml

scale max 1920 width
top to bottom direction

skinparam monochrome true
skinparam shadowing false
skinparam nodesep 20
skinparam ranksep 20
skinparam defaultFontName Tahoma
skinparam defaultFontSize 12
skinparam roundCorner 4
skinparam dpi 150
skinparam arrowThickness 0.7
skinparam packageTitleAlignment left

skinparam usecase {
  borderThickness 0.4
  fontSize 12
}

skinparam rectangle {
  borderThickness 0.8
}

skinparam component {
  borderThickness 1.2
}


rectangle "<b>index</b>" as _index
rectangle "Binding" as _Binding
rectangle "Gesture" as _Gesture
rectangle "Input" as _Input
rectangle "PHASE" as _PHASE
rectangle "Point2D" as _Point2D
rectangle "PointerData" as _PointerData
rectangle "Region" as _Region
rectangle "State" as _State

_index ==> _Gesture
_index ==> _Point2D
_index ==> _Region
_Input --> _PointerData
_PointerData --> _PHASE
_PointerData --> _Point2D
_Region --> _Binding
_Region --> _PHASE
_Region --> _State
_State --> _Input
_State --> _PHASE
_State --> _Point2D

@enduml


' View and edit on https://arkit.herokuapp.com
]]></script></g></svg>