<?xml version="1.0" encoding="UTF-8" standalone="no"?><svg xmlns="http://www.w3.org/2000/svg" xmlns:xlink="http://www.w3.org/1999/xlink" contentScriptType="application/ecmascript" contentStyleType="text/css" height="340px" preserveAspectRatio="none" style="width:448px;height:340px;" version="1.1" viewBox="0 0 448 340" width="448px" zoomAndPan="magnify"><defs/><g><!--entity index--><rect fill="#F8F8F8" height="36.8984" rx="2" ry="2" style="stroke: #000000; stroke-width: 1.0;" width="57" x="76" y="8"/><text fill="#000000" font-family="Tahoma, sans-serif" font-size="14" font-weight="bold" lengthAdjust="spacingAndGlyphs" textLength="37" x="86" y="32.0068">index</text><!--entity Binding--><rect fill="#F8F8F8" height="36.8984" rx="2" ry="2" style="stroke: #000000; stroke-width: 1.0;" width="64" x="373.5" y="122"/><text fill="#000000" font-family="Tahoma, sans-serif" font-size="14" lengthAdjust="spacingAndGlyphs" textLength="44" x="383.5" y="146.0068">Binding</text><!--entity Gesture--><rect fill="#F8F8F8" height="36.8984" rx="2" ry="2" style="stroke: #000000; stroke-width: 1.0;" width="67" x="6" y="65"/><text fill="#000000" font-family="Tahoma, sans-serif" font-size="14" lengthAdjust="spacingAndGlyphs" textLength="47" x="16" y="89.0068">Gesture</text><!--entity Input--><rect fill="#F8F8F8" height="36.8984" rx="2" ry="2" style="stroke: #000000; stroke-width: 1.0;" width="53" x="207" y="179"/><text fill="#000000" font-family="Tahoma, sans-serif" font-size="14" lengthAdjust="spacingAndGlyphs" textLength="33" x="217" y="203.0068">Input</text><!--entity PHASE--><rect fill="#F8F8F8" height="36.8984" rx="2" ry="2" style="stroke: #000000; stroke-width: 1.0;" width="61" x="270" y="293"/><text fill="#000000" font-family="Tahoma, sans-serif" font-size="14" lengthAdjust="spacingAndGlyphs" textLength="41" x="280" y="317.0068">PHASE</text><!--entity Point2D--><rect fill="#F8F8F8" height="36.8984" rx="2" ry="2" style="stroke: #000000; stroke-width: 1.0;" width="69" x="112" y="293"/><text fill="#000000" font-family="Tahoma, sans-serif" font-size="14" lengthAdjust="spacingAndGlyphs" textLength="49" x="122" y="317.0068">Point2D</text><!--entity PointerData--><rect fill="#F8F8F8" height="36.8984" rx="2" ry="2" style="stroke: #000000; stroke-width: 1.0;" width="92" x="177.5" y="236"/><text fill="#000000" font-family="Tahoma, sans-serif" font-size="14" lengthAdjust="spacingAndGlyphs" textLength="72" x="187.5" y="260.0068">PointerData</text><!--entity Region--><rect fill="#F8F8F8" height="36.8984" rx="2" ry="2" style="stroke: #000000; stroke-width: 1.0;" width="62" x="278.5" y="65"/><text fill="#000000" font-family="Tahoma, sans-serif" font-size="14" lengthAdjust="spacingAndGlyphs" textLength="42" x="288.5" y="89.0068">Region</text><!--entity State--><rect fill="#F8F8F8" height="36.8984" rx="2" ry="2" style="stroke: #000000; stroke-width: 1.0;" width="52" x="233.5" y="122"/><text fill="#000000" font-family="Tahoma, sans-serif" font-size="14" lengthAdjust="spacingAndGlyphs" textLength="32" x="243.5" y="146.0068">State</text><!--link index to Gesture--><path d="M83.2166,45.1639 C77.207,50.4339 70.6142,56.2153 64.4119,61.6542 " fill="none" id="index-Gesture" style="stroke: #383838; stroke-width: 2.0;"/><polygon fill="#383838" points="60.6093,64.9888,70.0133,62.0622,64.3685,61.6921,64.7386,56.0474,60.6093,64.9888" style="stroke: #383838; stroke-width: 2.0;"/><!--link index to Point2D--><path d="M104.5,45.061 C104.5,67.6226 104.5,106.8542 104.5,140.5 C104.5,140.5 104.5,140.5 104.5,197.5 C104.5,230.5817 120.2654,265.9187 132.4781,288.3297 " fill="none" id="index-Point2D" style="stroke: #383838; stroke-width: 2.0;"/><polygon fill="#383838" points="135.0233,292.9104,134.1485,283.1005,132.5948,288.5398,127.1555,286.9861,135.0233,292.9104" style="stroke: #383838; stroke-width: 2.0;"/><!--link index to Region--><path d="M133.0044,34.4256 C169.5397,44.5842 232.9319,62.2103 272.9713,73.3432 " fill="none" id="index-Region" style="stroke: #383838; stroke-width: 2.0;"/><polygon fill="#383838" points="278.2185,74.8022,270.619,68.5374,273.4012,73.4628,268.4759,76.245,278.2185,74.8022" style="stroke: #383838; stroke-width: 2.0;"/><!--link Input to PointerData--><path d="M230.2256,216.1639 C229.4057,220.8373 228.5153,225.9128 227.6588,230.7951 " fill="none" id="Input-PointerData" style="stroke: #383838; stroke-width: 0.7;"/><polygon fill="#383838" points="226.7476,235.9888,232.2429,227.8156,227.6118,231.064,224.3633,226.4329,226.7476,235.9888" style="stroke: #383838; stroke-width: 0.7;"/><!--link PointerData to PHASE--><path d="M248.7127,273.1639 C255.9661,278.5333 263.9367,284.4336 271.4044,289.9617 " fill="none" id="PointerData-PHASE" style="stroke: #383838; stroke-width: 0.7;"/><polygon fill="#383838" points="275.4937,292.9888,270.6401,284.4189,271.475,290.0138,265.8801,290.8488,275.4937,292.9888" style="stroke: #383838; stroke-width: 0.7;"/><!--link PointerData to Point2D--><path d="M198.2873,273.1639 C191.0339,278.5333 183.0633,284.4336 175.5956,289.9617 " fill="none" id="PointerData-Point2D" style="stroke: #383838; stroke-width: 0.7;"/><polygon fill="#383838" points="171.5063,292.9888,181.1199,290.8488,175.525,290.0138,176.3599,284.4189,171.5063,292.9888" style="stroke: #383838; stroke-width: 0.7;"/><!--link Region to Binding--><path d="M340.6684,102.0063 C349.974,107.5315 360.246,113.6304 369.8172,119.3133 " fill="none" id="Region-Binding" style="stroke: #383838; stroke-width: 0.7;"/><polygon fill="#383838" points="374.1594,121.8915,368.4629,113.8572,369.8601,119.3388,364.3786,120.736,374.1594,121.8915" style="stroke: #383838; stroke-width: 0.7;"/><!--link Region to PHASE--><path d="M309.196,102.0719 C308.577,136.0262 306.9288,210.3892 303.5,273 C303.2415,277.7195 302.8979,282.7594 302.5356,287.5853 " fill="none" id="Region-PHASE" style="stroke: #383838; stroke-width: 0.7;"/><polygon fill="#383838" points="302.1384,292.7127,306.8217,284.0486,302.5247,287.7276,298.8457,283.4306,302.1384,292.7127" style="stroke: #383838; stroke-width: 0.7;"/><!--link Region to State--><path d="M293.1281,102.1639 C288.6798,107.235 283.8161,112.7797 279.2043,118.0371 " fill="none" id="Region-State" style="stroke: #383838; stroke-width: 0.7;"/><polygon fill="#383838" points="275.7379,121.9888,284.6798,117.8606,279.035,118.23,278.6657,112.5852,275.7379,121.9888" style="stroke: #383838; stroke-width: 0.7;"/><!--link State to Input--><path d="M250.9866,159.1639 C248.7642,164.0362 246.3424,169.3455 244.029,174.4173 " fill="none" id="State-Input" style="stroke: #383838; stroke-width: 0.7;"/><polygon fill="#383838" points="241.9437,178.9888,249.3181,172.4606,244.0188,174.4397,242.0396,169.1404,241.9437,178.9888" style="stroke: #383838; stroke-width: 0.7;"/><!--link State to PHASE--><path d="M265.0811,159.242 C266.8855,165.5045 268.8459,172.5348 270.5,179 C280.201,216.9162 289.9304,261.3488 295.5754,287.9194 " fill="none" id="State-PHASE" style="stroke: #383838; stroke-width: 0.7;"/><polygon fill="#383838" points="296.6488,292.9881,298.6974,283.3547,295.6129,288.0966,290.871,285.0121,296.6488,292.9881" style="stroke: #383838; stroke-width: 0.7;"/><!--link State to Point2D--><path d="M233.4489,152.6301 C221.4211,159.177 207.6025,168.1511 197.5,179 C168.7195,209.9067 155.6187,258.7945 150.1012,287.7504 " fill="none" id="State-Point2D" style="stroke: #383838; stroke-width: 0.7;"/><polygon fill="#383838" points="149.1571,292.9163,154.7101,284.7822,150.0561,287.9978,146.8405,283.3438,149.1571,292.9163" style="stroke: #383838; stroke-width: 0.7;"/><!--
@startuml
scale max 1920 width
top to bottom direction

skinparam monochrome true
skinparam shadowing false
skinparam nodesep 20
skinparam ranksep 20
skinparam defaultFontName Tahoma
skinparam defaultFontSize 14
skinparam roundCorner 4
skinparam dpi 150
skinparam arrowThickness 0.7
skinparam packageTitleAlignment left

skinparam usecase {
  borderThickness 0.4
  fontSize 12
}

skinparam rectangle {
  borderThickness 1
}
    

rectangle "<b>index</b>" as index
rectangle "Binding" as Binding
rectangle "Gesture" as Gesture
rectangle "Input" as Input
rectangle "PHASE" as PHASE
rectangle "Point2D" as Point2D
rectangle "PointerData" as PointerData
rectangle "Region" as Region
rectangle "State" as State

index ==> Gesture
index ==> Point2D
index ==> Region
Input - -> PointerData
PointerData - -> PHASE
PointerData - -> Point2D
Region - -> Binding
Region - -> PHASE
Region - -> State
State - -> Input
State - -> PHASE
State - -> Point2D
@enduml

PlantUML version 1.2019.01(Sat Feb 09 15:32:04 UTC 2019)
(GPL source distribution)
Java Runtime: OpenJDK Runtime Environment
JVM: OpenJDK 64-Bit Server VM
Java Version: 10.0.2+13
Operating System: Linux
OS Version: 4.4.0-1038-aws
Default Encoding: UTF-8
Language: en
Country: US
--></g></svg>