<?xml version="1.0" encoding="UTF-8" standalone="no"?><svg xmlns="http://www.w3.org/2000/svg" xmlns:xlink="http://www.w3.org/1999/xlink" contentScriptType="application/ecmascript" contentStyleType="text/css" height="279px" preserveAspectRatio="none" style="width:348px;height:279px;" version="1.1" viewBox="0 0 348 279" width="348px" zoomAndPan="magnify"><defs/><g><ellipse cx="33.7487" cy="43.242" fill="#F8F8F8" rx="27.7487" ry="13.242" style="stroke: #383838; stroke-width: 0.5;"/><text fill="#000000" font-family="Tahoma, sans-serif" font-size="12" font-weight="bold" lengthAdjust="spacingAndGlyphs" textLength="35" x="16.2487" y="46.9842">index</text><ellipse cx="279.6985" cy="96.242" fill="#F8F8F8" rx="32.6985" ry="13.242" style="stroke: #383838; stroke-width: 0.5;"/><text fill="#000000" font-family="Tahoma, sans-serif" font-size="12" lengthAdjust="spacingAndGlyphs" textLength="42" x="258.6985" y="99.9842">Binding</text><ellipse cx="109.3198" cy="43.242" fill="#F8F8F8" rx="34.8198" ry="13.242" style="stroke: #383838; stroke-width: 0.5;"/><text fill="#000000" font-family="Tahoma, sans-serif" font-size="12" lengthAdjust="spacingAndGlyphs" textLength="45" x="86.8198" y="46.9842">Gesture</text><ellipse cx="209.7132" cy="149.242" fill="#F8F8F8" rx="24.2132" ry="13.242" style="stroke: #383838; stroke-width: 0.5;"/><text fill="#000000" font-family="Tahoma, sans-serif" font-size="12" lengthAdjust="spacingAndGlyphs" textLength="30" x="194.7132" y="152.9842">Input</text><ellipse cx="280.663" cy="255.242" fill="#F8F8F8" rx="29.163" ry="13.242" style="stroke: #383838; stroke-width: 0.5;"/><text fill="#000000" font-family="Tahoma, sans-serif" font-size="12" lengthAdjust="spacingAndGlyphs" textLength="37" x="262.163" y="258.9842">PHASE</text><ellipse cx="138.3198" cy="255.242" fill="#F8F8F8" rx="34.8198" ry="13.242" style="stroke: #383838; stroke-width: 0.5;"/><text fill="#000000" font-family="Tahoma, sans-serif" font-size="12" lengthAdjust="spacingAndGlyphs" textLength="45" x="115.8198" y="258.9842">Point2D</text><ellipse cx="209.3762" cy="202.242" fill="#F8F8F8" rx="50.3762" ry="13.242" style="stroke: #383838; stroke-width: 0.5;"/><text fill="#000000" font-family="Tahoma, sans-serif" font-size="12" lengthAdjust="spacingAndGlyphs" textLength="67" x="175.8762" y="205.9842">PointerData</text><ellipse cx="306.5772" cy="43.242" fill="#F8F8F8" rx="30.5772" ry="13.242" style="stroke: #383838; stroke-width: 0.5;"/><text fill="#000000" font-family="Tahoma, sans-serif" font-size="12" lengthAdjust="spacingAndGlyphs" textLength="39" x="287.0772" y="46.9842">Region</text><ellipse cx="210.4975" cy="43.242" fill="#F8F8F8" rx="52.4975" ry="13.242" style="stroke: #383838; stroke-width: 0.5;"/><text fill="#000000" font-family="Tahoma, sans-serif" font-size="12" lengthAdjust="spacingAndGlyphs" textLength="70" x="175.4975" y="46.9842">Smoothable</text><ellipse cx="209.7132" cy="96.242" fill="#F8F8F8" rx="24.2132" ry="13.242" style="stroke: #383838; stroke-width: 0.5;"/><text fill="#000000" font-family="Tahoma, sans-serif" font-size="12" lengthAdjust="spacingAndGlyphs" textLength="30" x="194.7132" y="99.9842">State</text><!--link <b>index</b> to Gesture--><path d="M61.1094,43 C63.7282,43 66.347,43 68.9658,43 " fill="none" id="&lt;b&gt;index&lt;/b&gt;-Gesture" style="stroke: #000000; stroke-width: 1.0;"/><polygon fill="#000000" points="74.3412,43,65.3412,39,69.3412,43,65.3412,47,74.3412,43" style="stroke: #000000; stroke-width: 1.0;"/><!--link <b>index</b> to Point2D--><path d="M39.4461,55.892 C57.1636,91.327 109.639,196.2788 130.151,237.3011 " fill="none" id="&lt;b&gt;index&lt;/b&gt;-Point2D" style="stroke: #000000; stroke-width: 1.0;"/><polygon fill="#000000" points="132.489,241.9779,132.041,232.1392,130.2526,237.5059,124.8859,235.7175,132.489,241.9779" style="stroke: #000000; stroke-width: 1.0;"/><!--link <b>index</b> to Region--><path d="M46.7347,31.503 C54.2008,25.787 64.0149,19.476 74,16.5 C114.25,4.502 222.562,5.153 263,16.5 C271.743,18.953 280.471,23.702 287.79,28.511 " fill="none" id="&lt;b&gt;index&lt;/b&gt;-Region" style="stroke: #000000; stroke-width: 1.0;"/><polygon fill="#000000" points="292.152,31.492,286.9796,23.1107,288.0243,28.6702,282.4648,29.7149,292.152,31.492" style="stroke: #000000; stroke-width: 1.0;"/><!--link <b>index</b> to Smoothable--><path d="M46.7347,31.503 C54.2008,25.787 64.0149,19.476 74,16.5 C103.8147,7.613 113.446,10.636 144,16.5 C157.136,19.021 170.98,24.106 182.616,29.154 " fill="none" id="&lt;b&gt;index&lt;/b&gt;-Smoothable" style="stroke: #000000; stroke-width: 1.0;"/><polygon fill="#000000" points="187.459,31.307,180.8605,23.9954,182.8903,29.2755,177.6101,31.3053,187.459,31.307" style="stroke: #000000; stroke-width: 1.0;"/><!--link Input to PointerData--><path d="M209.5,162.086 C209.5,168.4708 209.5,176.4237 209.5,183.4728 " fill="none" id="Input-PointerData" style="stroke: #000000; stroke-width: 0.55;"/><polygon fill="#000000" points="209.5,188.6462,213.5,179.6462,209.5,183.6462,205.5,179.6462,209.5,188.6462" style="stroke: #000000; stroke-width: 0.55;"/><!--link PointerData to PHASE--><path d="M225.611,214.5727 C236.302,222.2524 250.378,232.3632 261.599,240.4231 " fill="none" id="PointerData-PHASE" style="stroke: #000000; stroke-width: 0.55;"/><polygon fill="#000000" points="265.902,243.5139,260.9261,235.0145,261.8411,240.5968,256.2588,241.5119,265.902,243.5139" style="stroke: #000000; stroke-width: 0.55;"/><!--link PointerData to Point2D--><path d="M193.389,214.5727 C182.842,222.1486 169.002,232.0904 157.858,240.0952 " fill="none" id="PointerData-Point2D" style="stroke: #000000; stroke-width: 0.55;"/><polygon fill="#000000" points="153.576,243.1706,163.2192,241.1686,157.6369,240.2535,158.5519,234.6712,153.576,243.1706" style="stroke: #000000; stroke-width: 0.55;"/><!--link Region to Binding--><path d="M300.238,55.829 C296.626,62.652 292.032,71.329 288.086,78.781 " fill="none" id="Region-Binding" style="stroke: #000000; stroke-width: 0.55;"/><polygon fill="#000000" points="285.728,83.236,293.4734,77.1525,288.0669,78.8168,286.4027,73.4103,285.728,83.236" style="stroke: #000000; stroke-width: 0.55;"/><!--link Region to PHASE--><path d="M311.24,56.078 C313.963,63.673 317.11,73.753 318.5,83 C320.218,94.427 319.977,97.539 318.5,109 C312.42,156.184 295.645,209.9225 286.551,236.7922 " fill="none" id="Region-PHASE" style="stroke: #000000; stroke-width: 0.55;"/><polygon fill="#000000" points="284.84,241.798,291.5358,234.5754,286.4571,237.0667,283.9657,231.988,284.84,241.798" style="stroke: #000000; stroke-width: 0.55;"/><!--link Region to State--><path d="M288.255,53.593 C271.902,62.191 247.907,74.806 230.705,83.851 " fill="none" id="Region-State" style="stroke: #000000; stroke-width: 0.55;"/><polygon fill="#000000" points="226.046,86.301,235.8735,85.6527,230.4715,83.974,232.1503,78.572,226.046,86.301" style="stroke: #000000; stroke-width: 0.55;"/><!--link State to Input--><path d="M209.5,109.086 C209.5,115.471 209.5,123.424 209.5,130.473 " fill="none" id="State-Input" style="stroke: #000000; stroke-width: 0.55;"/><polygon fill="#000000" points="209.5,135.646,213.5,126.646,209.5,130.646,205.5,126.646,209.5,135.646" style="stroke: #000000; stroke-width: 0.55;"/><!--link State to PHASE--><path d="M219.005,108.2 C225.216,115.785 233.295,126.178 239.5,136 C253.619,158.35 257.643,164.092 266.5,189 C272.1,204.7469 275.843,223.4726 278.039,236.7711 " fill="none" id="State-PHASE" style="stroke: #000000; stroke-width: 0.55;"/><polygon fill="#000000" points="278.833,241.7604,281.3698,232.2438,278.0477,236.8225,273.4691,233.5004,278.833,241.7604" style="stroke: #000000; stroke-width: 0.55;"/><!--link State to Point2D--><path d="M199.595,108.121 C193.143,115.672 184.787,126.058 178.5,136 C164.478,158.176 161.104,164.214 152.5,189 C147.019,204.7887 143.26,223.5089 141.028,236.7948 " fill="none" id="State-Point2D" style="stroke: #000000; stroke-width: 0.55;"/><polygon fill="#000000" points="140.219,241.7788,145.6088,233.5356,141.0198,236.8433,137.7121,232.2543,140.219,241.7788" style="stroke: #000000; stroke-width: 0.55;"/><script type="text/plantuml"><![CDATA[
@startuml

scale max 1920 width
top to bottom direction

skinparam nodesep 13
skinparam ranksep 27
skinparam monochrome true
skinparam shadowing false
skinparam defaultFontName Tahoma
skinparam defaultFontSize 12
skinparam roundCorner 4
skinparam dpi 150
skinparam arrowColor black
skinparam arrowThickness 0.55
skinparam packageTitleAlignment left

skinparam usecase {
  borderThickness 0.5
}

skinparam rectangle {
  borderThickness 0.5
}

skinparam component {
  borderThickness 1
}


(<b>index</b>)
(Binding)
(Gesture)
(Input)
(PHASE)
(Point2D)
(PointerData)
(Region)
(Smoothable)
(State)

(<b>index</b>) -[thickness=1]> (Gesture)
(<b>index</b>) -[thickness=1]> (Point2D)
(<b>index</b>) -[thickness=1]> (Region)
(<b>index</b>) -[thickness=1]> (Smoothable)
(Input) --> (PointerData)
(PointerData) --> (PHASE)
(PointerData) --> (Point2D)
(Region) --> (Binding)
(Region) --> (PHASE)
(Region) --> (State)
(State) --> (Input)
(State) --> (PHASE)
(State) --> (Point2D)

@enduml


' View and edit on https://arkit.herokuapp.com
]]></script></g></svg>