<?xml version="1.0" encoding="UTF-8" standalone="no"?><svg xmlns="http://www.w3.org/2000/svg" xmlns:xlink="http://www.w3.org/1999/xlink" contentScriptType="application/ecmascript" contentStyleType="text/css" height="330px" preserveAspectRatio="none" style="width:384px;height:330px;" version="1.1" viewBox="0 0 384 330" width="384px" zoomAndPan="magnify"><defs/><g><!--cluster westures-core--><path d="M80.5,39 L176.5,39 A4.5,4.5 0 0 1 179.5,42 L186.5,59.4844 L369.5,59.4844 A3,3 0 0 1 372.5,62.4844 L372.5,315 A3,3 0 0 1 369.5,318 L80.5,318 A3,3 0 0 1 77.5,315 L77.5,42 A3,3 0 0 1 80.5,39 " fill="#FFFFFF" style="stroke: #000000; stroke-width: 1.5;"/><line style="stroke: #000000; stroke-width: 1.5;" x1="77.5" x2="186.5" y1="59.4844" y2="59.4844"/><text fill="#000000" font-family="Tahoma, sans-serif" font-size="12" font-weight="bold" lengthAdjust="spacingAndGlyphs" textLength="96" x="81.5" y="53.0059">westures-core</text><ellipse cx="281.5122" cy="289.242" fill="#F8F8F8" rx="44.0122" ry="13.242" style="stroke: #383838; stroke-width: 0.5;"/><text fill="#000000" font-family="Tahoma, sans-serif" font-size="12" lengthAdjust="spacingAndGlyphs" textLength="58" x="252.5122" y="292.9842">constants</text><ellipse cx="128.3198" cy="85.242" fill="#F8F8F8" rx="34.8198" ry="13.242" style="stroke: #383838; stroke-width: 0.5;"/><text fill="#000000" font-family="Tahoma, sans-serif" font-size="12" lengthAdjust="spacingAndGlyphs" textLength="45" x="105.8198" y="88.9842">Gesture</text><ellipse cx="230.7132" cy="187.242" fill="#F8F8F8" rx="24.2132" ry="13.242" style="stroke: #383838; stroke-width: 0.5;"/><text fill="#000000" font-family="Tahoma, sans-serif" font-size="12" lengthAdjust="spacingAndGlyphs" textLength="30" x="215.7132" y="190.9842">Input</text><ellipse cx="151.3198" cy="289.242" fill="#F8F8F8" rx="34.8198" ry="13.242" style="stroke: #383838; stroke-width: 0.5;"/><text fill="#000000" font-family="Tahoma, sans-serif" font-size="12" lengthAdjust="spacingAndGlyphs" textLength="45" x="128.8198" y="292.9842">Point2D</text><ellipse cx="216.3762" cy="238.242" fill="#F8F8F8" rx="50.3762" ry="13.242" style="stroke: #383838; stroke-width: 0.5;"/><text fill="#000000" font-family="Tahoma, sans-serif" font-size="12" lengthAdjust="spacingAndGlyphs" textLength="67" x="182.8762" y="241.9842">PointerData</text><ellipse cx="325.5772" cy="85.242" fill="#F8F8F8" rx="30.5772" ry="13.242" style="stroke: #383838; stroke-width: 0.5;"/><text fill="#000000" font-family="Tahoma, sans-serif" font-size="12" lengthAdjust="spacingAndGlyphs" textLength="39" x="306.0772" y="88.9842">Region</text><ellipse cx="229.4975" cy="85.242" fill="#F8F8F8" rx="52.4975" ry="13.242" style="stroke: #383838; stroke-width: 0.5;"/><text fill="#000000" font-family="Tahoma, sans-serif" font-size="12" lengthAdjust="spacingAndGlyphs" textLength="70" x="194.4975" y="88.9842">Smoothable</text><ellipse cx="237.7132" cy="136.242" fill="#F8F8F8" rx="24.2132" ry="13.242" style="stroke: #383838; stroke-width: 0.5;"/><text fill="#000000" font-family="Tahoma, sans-serif" font-size="12" lengthAdjust="spacingAndGlyphs" textLength="30" x="222.7132" y="139.9842">State</text><ellipse cx="330.4706" cy="136.242" fill="#F8F8F8" rx="19.9706" ry="13.242" style="stroke: #383838; stroke-width: 0.5;"/><text fill="#000000" font-family="Tahoma, sans-serif" font-size="12" lengthAdjust="spacingAndGlyphs" textLength="24" x="318.4706" y="139.9842">utils</text><ellipse cx="33.7487" cy="85.242" fill="#F8F8F8" rx="27.7487" ry="13.242" style="stroke: #383838; stroke-width: 0.5;"/><text fill="#000000" font-family="Tahoma, sans-serif" font-size="12" font-weight="bold" lengthAdjust="spacingAndGlyphs" textLength="35" x="16.2487" y="88.9842">index</text><!--link <b>index</b> to Gesture--><path d="M61.332,85 C70.3348,85 79.3375,85 88.3402,85 " fill="none" id="&lt;b&gt;index&lt;/b&gt;-Gesture" style="stroke: #000000; stroke-width: 1.0;"/><polygon fill="#000000" points="93.3418,85,84.3418,81,88.3418,85,84.3418,89,93.3418,85" style="stroke: #000000; stroke-width: 1.0;"/><!--link <b>index</b> to Point2D--><path d="M40.3542,97.733 C60.3951,132.041 118.924,232.234 141.994,271.7273 " fill="none" id="&lt;b&gt;index&lt;/b&gt;-Point2D" style="stroke: #000000; stroke-width: 1.0;"/><polygon fill="#000000" points="144.627,276.2341,143.5408,266.4453,142.1048,271.9169,136.6333,270.4808,144.627,276.2341" style="stroke: #000000; stroke-width: 1.0;"/><!--link <b>index</b> to Region--><path d="M39.6403,72.316 C48.178,56.326 65.3007,29.589 89,18.5 C108.423,9.411 263.137,8.299 282,18.5 C300.915,28.73 312.923,51.156 319.423,67.134 " fill="none" id="&lt;b&gt;index&lt;/b&gt;-Region" style="stroke: #000000; stroke-width: 1.0;"/><polygon fill="#000000" points="321.265,71.865,321.7272,62.027,319.451,67.2057,314.2723,64.9294,321.265,71.865" style="stroke: #000000; stroke-width: 1.0;"/><!--link <b>index</b> to Smoothable--><path d="M39.6403,72.316 C48.178,56.326 65.3007,29.589 89,18.5 C118.789,4.561 132.615,5.914 163,18.5 C186.853,28.38 206.612,51.428 218.233,67.606 " fill="none" id="&lt;b&gt;index&lt;/b&gt;-Smoothable" style="stroke: #000000; stroke-width: 1.0;"/><polygon fill="#000000" points="221.291,71.971,219.4027,62.3049,218.422,67.876,212.8508,66.8953,221.291,71.971" style="stroke: #000000; stroke-width: 1.0;"/><!--link Input to PointerData--><path d="M227.039,200.112 C225.31,206.165 223.19,213.586 221.305,220.181 " fill="none" id="Input-PointerData" style="stroke: #000000; stroke-width: 0.5; stroke-dasharray: 7.0,7.0;"/><polygon fill="#000000" points="219.921,225.027,226.2387,217.4714,221.294,220.2192,218.5462,215.2746,219.921,225.027" style="stroke: #000000; stroke-width: 0.5;"/><!--link PointerData to constants--><path d="M231.904,250.6123 C240.97,257.4469 252.518,266.1521 262.189,273.4427 " fill="none" id="PointerData-constants" style="stroke: #000000; stroke-width: 0.5; stroke-dasharray: 7.0,7.0;"/><polygon fill="#000000" points="266.206,276.471,261.4274,267.8591,262.2135,273.461,256.6115,274.2471,266.206,276.471" style="stroke: #000000; stroke-width: 0.5;"/><!--link PointerData to Point2D--><path d="M201.096,250.6123 C191.767,257.645 179.81,266.6584 169.975,274.073 " fill="none" id="PointerData-Point2D" style="stroke: #000000; stroke-width: 0.5; stroke-dasharray: 7.0,7.0;"/><polygon fill="#000000" points="165.903,277.1424,175.4975,274.9187,169.8956,274.1325,170.6817,268.5306,165.903,277.1424" style="stroke: #000000; stroke-width: 0.5;"/><!--link Region to constants--><path d="M317.28,97.786 C312.79,104.798 307.54,114.048 304.5,123 C286.99,174.564 282.795,239.5322 281.801,270.2956 " fill="none" id="Region-constants" style="stroke: #000000; stroke-width: 0.5; stroke-dasharray: 7.0,7.0;"/><polygon fill="#000000" points="281.65,275.6308,285.9027,266.7474,281.7913,270.6328,277.9059,266.5214,281.65,275.6308" style="stroke: #000000; stroke-width: 0.5;"/><!--link Region to State--><path d="M307.692,95.916 C293.309,103.924 273.057,115.201 258,123.585 " fill="none" id="Region-State" style="stroke: #000000; stroke-width: 0.5; stroke-dasharray: 7.0,7.0;"/><polygon fill="#000000" points="253.506,126.087,263.3151,125.2028,257.8743,123.6543,259.4228,118.2135,253.506,126.087" style="stroke: #000000; stroke-width: 0.5;"/><!--link Region to utils--><path d="M326.736,98.112 C327.332,103.958 328.059,111.079 328.714,117.501 " fill="none" id="Region-utils" style="stroke: #000000; stroke-width: 0.5; stroke-dasharray: 7.0,7.0;"/><polygon fill="#000000" points="329.244,122.687,332.3105,113.3277,328.7369,117.7128,324.3518,114.1391,329.244,122.687" style="stroke: #000000; stroke-width: 0.5;"/><!--link State to constants--><path d="M246.38,148.413 C251.466,155.447 257.594,164.845 261.5,174 C275.297,206.339 279.577,247.7269 280.904,270.6869 " fill="none" id="State-constants" style="stroke: #000000; stroke-width: 0.5; stroke-dasharray: 7.0,7.0;"/><polygon fill="#000000" points="281.17,275.8395,284.7014,266.6455,280.9126,270.8461,276.712,267.0573,281.17,275.8395" style="stroke: #000000; stroke-width: 0.5;"/><!--link State to Input--><path d="M235.77,149.112 C234.922,155.046 233.886,162.296 232.958,168.792 " fill="none" id="State-Input" style="stroke: #000000; stroke-width: 0.5; stroke-dasharray: 7.0,7.0;"/><polygon fill="#000000" points="232.21,174.027,237.4426,165.6831,232.9171,169.0773,229.523,164.5518,232.21,174.027" style="stroke: #000000; stroke-width: 0.5;"/><!--link State to Point2D--><path d="M224.398,146.943 C206.108,161.692 173.586,191.28 159.5,225 C153.402,239.5988 151.626,257.6263 151.244,270.6516 " fill="none" id="State-Point2D" style="stroke: #000000; stroke-width: 0.5; stroke-dasharray: 7.0,7.0;"/><polygon fill="#000000" points="151.157,275.903,155.3061,266.9708,151.2402,270.9037,147.3072,266.8377,151.157,275.903" style="stroke: #000000; stroke-width: 0.5;"/><script type="text/plantuml"><![CDATA[
@startuml

scale max 1920 width
top to bottom direction

skinparam nodesep 13
skinparam ranksep 25
skinparam monochrome true
skinparam shadowing false
skinparam defaultFontName Tahoma
skinparam defaultFontSize 12
skinparam roundCorner 6
skinparam dpi 150
skinparam arrowColor black
skinparam arrowThickness 0.5
skinparam packageTitleAlignment left

skinparam usecase {
  borderThickness 0.5
}

skinparam rectangle {
  borderThickness 0.5
}

skinparam component {
  borderThickness 1
}


(<b>index</b>)

package "westures-core" {
  (constants)
  (Gesture)
  (Input)
  (Point2D)
  (PointerData)
  (Region)
  (Smoothable)
  (State)
  (utils)
}

(<b>index</b>) -[thickness=1]> (Gesture)
(<b>index</b>) -[thickness=1]> (Point2D)
(<b>index</b>) -[thickness=1]> (Region)
(<b>index</b>) -[thickness=1]> (Smoothable)
(Input) ..> (PointerData)
(PointerData) ..> (constants)
(PointerData) ..> (Point2D)
(Region) ..> (constants)
(Region) ..> (State)
(Region) ..> (utils)
(State) ..> (constants)
(State) ..> (Input)
(State) ..> (Point2D)

@enduml


' View and edit on https://arkit.pro
]]></script></g></svg>