<?xml version="1.0" encoding="UTF-8" standalone="no"?><svg xmlns="http://www.w3.org/2000/svg" xmlns:xlink="http://www.w3.org/1999/xlink" contentScriptType="application/ecmascript" contentStyleType="text/css" height="330px" preserveAspectRatio="none" style="width:382px;height:330px;" version="1.1" viewBox="0 0 382 330" width="382px" zoomAndPan="magnify"><defs/><g><!--cluster westures-core--><path d="M80.5,39 L176.5,39 A4.5,4.5 0 0 1 179.5,42 L186.5,59.4844 L367.5,59.4844 A3,3 0 0 1 370.5,62.4844 L370.5,315 A3,3 0 0 1 367.5,318 L80.5,318 A3,3 0 0 1 77.5,315 L77.5,42 A3,3 0 0 1 80.5,39 " fill="#FFFFFF" style="stroke: #000000; stroke-width: 1.5;"/><line style="stroke: #000000; stroke-width: 1.5;" x1="77.5" x2="186.5" y1="59.4844" y2="59.4844"/><text fill="#000000" font-family="Tahoma, sans-serif" font-size="12" font-weight="bold" lengthAdjust="spacingAndGlyphs" textLength="96" x="81.5" y="53.0059">westures-core</text><ellipse cx="309.5122" cy="289.242" fill="#F8F8F8" rx="44.0122" ry="13.242" style="stroke: #383838; stroke-width: 0.5;"/><text fill="#000000" font-family="Tahoma, sans-serif" font-size="12" lengthAdjust="spacingAndGlyphs" textLength="58" x="280.5122" y="292.9842">constants</text><ellipse cx="128.3198" cy="85.242" fill="#F8F8F8" rx="34.8198" ry="13.242" style="stroke: #383838; stroke-width: 0.5;"/><text fill="#000000" font-family="Tahoma, sans-serif" font-size="12" lengthAdjust="spacingAndGlyphs" textLength="45" x="105.8198" y="88.9842">Gesture</text><ellipse cx="259.7132" cy="187.242" fill="#F8F8F8" rx="24.2132" ry="13.242" style="stroke: #383838; stroke-width: 0.5;"/><text fill="#000000" font-family="Tahoma, sans-serif" font-size="12" lengthAdjust="spacingAndGlyphs" textLength="30" x="244.7132" y="190.9842">Input</text><ellipse cx="181.3198" cy="289.242" fill="#F8F8F8" rx="34.8198" ry="13.242" style="stroke: #383838; stroke-width: 0.5;"/><text fill="#000000" font-family="Tahoma, sans-serif" font-size="12" lengthAdjust="spacingAndGlyphs" textLength="45" x="158.8198" y="292.9842">Point2D</text><ellipse cx="245.3762" cy="238.242" fill="#F8F8F8" rx="50.3762" ry="13.242" style="stroke: #383838; stroke-width: 0.5;"/><text fill="#000000" font-family="Tahoma, sans-serif" font-size="12" lengthAdjust="spacingAndGlyphs" textLength="67" x="211.8762" y="241.9842">PointerData</text><ellipse cx="323.5772" cy="85.242" fill="#F8F8F8" rx="30.5772" ry="13.242" style="stroke: #383838; stroke-width: 0.5;"/><text fill="#000000" font-family="Tahoma, sans-serif" font-size="12" lengthAdjust="spacingAndGlyphs" textLength="39" x="304.0772" y="88.9842">Region</text><ellipse cx="228.4975" cy="85.242" fill="#F8F8F8" rx="52.4975" ry="13.242" style="stroke: #383838; stroke-width: 0.5;"/><text fill="#000000" font-family="Tahoma, sans-serif" font-size="12" lengthAdjust="spacingAndGlyphs" textLength="70" x="193.4975" y="88.9842">Smoothable</text><ellipse cx="266.7132" cy="136.242" fill="#F8F8F8" rx="24.2132" ry="13.242" style="stroke: #383838; stroke-width: 0.5;"/><text fill="#000000" font-family="Tahoma, sans-serif" font-size="12" lengthAdjust="spacingAndGlyphs" textLength="30" x="251.7132" y="139.9842">State</text><ellipse cx="33.7487" cy="85.242" fill="#F8F8F8" rx="27.7487" ry="13.242" style="stroke: #383838; stroke-width: 0.5;"/><text fill="#000000" font-family="Tahoma, sans-serif" font-size="12" font-weight="bold" lengthAdjust="spacingAndGlyphs" textLength="35" x="16.2487" y="88.9842">index</text><!--link <b>index</b> to Gesture--><path d="M61.332,85 C70.3348,85 79.3375,85 88.3402,85 " fill="none" id="&lt;b&gt;index&lt;/b&gt;-Gesture" style="stroke: #000000; stroke-width: 1.0;"/><polygon fill="#000000" points="93.3418,85,84.3418,81,88.3418,85,84.3418,89,93.3418,85" style="stroke: #000000; stroke-width: 1.0;"/><!--link <b>index</b> to Point2D--><path d="M41.8812,97.439 C66.897,131.582 141.072,232.822 169.879,272.1383 " fill="none" id="&lt;b&gt;index&lt;/b&gt;-Point2D" style="stroke: #000000; stroke-width: 1.0;"/><polygon fill="#000000" points="172.842,276.1831,170.7505,266.5589,169.8873,272.1495,164.2967,271.2863,172.842,276.1831" style="stroke: #000000; stroke-width: 1.0;"/><!--link <b>index</b> to Region--><path d="M39.6999,72.042 C48.1756,56.026 65.0483,29.537 88.5,18.5 C107.903,9.368 262.719,8.149 281.5,18.5 C300.141,28.774 311.653,51.191 317.806,67.155 " fill="none" id="&lt;b&gt;index&lt;/b&gt;-Region" style="stroke: #000000; stroke-width: 1.0;"/><polygon fill="#000000" points="319.545,71.881,320.1904,62.0533,317.8181,67.1887,312.6827,64.8164,319.545,71.881" style="stroke: #000000; stroke-width: 1.0;"/><!--link <b>index</b> to Smoothable--><path d="M39.6999,72.042 C48.1756,56.026 65.0483,29.537 88.5,18.5 C118.66,4.306 132.777,5.568 163.5,18.5 C187.03,28.404 206.292,51.446 217.581,67.617 " fill="none" id="&lt;b&gt;index&lt;/b&gt;-Smoothable" style="stroke: #000000; stroke-width: 1.0;"/><polygon fill="#000000" points="220.55,71.979,218.7929,62.2882,217.7367,67.8455,212.1793,66.7894,220.55,71.979" style="stroke: #000000; stroke-width: 1.0;"/><!--link Input to PointerData--><path d="M256.039,200.112 C254.31,206.165 252.19,213.586 250.305,220.181 " fill="none" id="Input-PointerData" style="stroke: #000000; stroke-width: 0.5; stroke-dasharray: 7.0,7.0;"/><polygon fill="#000000" points="248.921,225.027,255.2387,217.4714,250.294,220.2192,247.5462,215.2746,248.921,225.027" style="stroke: #000000; stroke-width: 0.5;"/><!--link PointerData to constants--><path d="M260.667,250.6123 C269.514,257.3859 280.761,265.9968 290.231,273.2471 " fill="none" id="PointerData-constants" style="stroke: #000000; stroke-width: 0.5; stroke-dasharray: 7.0,7.0;"/><polygon fill="#000000" points="294.442,276.471,289.7281,267.8235,290.4721,273.4312,284.8644,274.1753,294.442,276.471" style="stroke: #000000; stroke-width: 0.5;"/><!--link PointerData to Point2D--><path d="M230.333,250.6123 C221.277,257.546 209.706,266.4048 200.101,273.7588 " fill="none" id="PointerData-Point2D" style="stroke: #000000; stroke-width: 0.5; stroke-dasharray: 7.0,7.0;"/><polygon fill="#000000" points="196.118,276.8083,205.6955,274.5124,200.0878,273.7685,200.8318,268.1607,196.118,276.8083" style="stroke: #000000; stroke-width: 0.5;"/><!--link Region to constants--><path d="M322.666,98.031 C320.289,132.334 313.47,230.721 310.696,270.749 " fill="none" id="Region-constants" style="stroke: #000000; stroke-width: 0.5; stroke-dasharray: 7.0,7.0;"/><polygon fill="#000000" points="310.347,275.7766,314.9599,267.0748,310.6928,270.7886,306.9791,266.5215,310.347,275.7766" style="stroke: #000000; stroke-width: 0.5;"/><!--link Region to State--><path d="M310.85,96.875 C302.62,103.95 291.804,113.248 282.913,120.89 " fill="none" id="Region-State" style="stroke: #000000; stroke-width: 0.5; stroke-dasharray: 7.0,7.0;"/><polygon fill="#000000" points="278.724,124.492,288.1561,121.6573,282.5152,121.2322,282.9404,115.5913,278.724,124.492" style="stroke: #000000; stroke-width: 0.5;"/><!--link State to constants--><path d="M274.929,148.493 C279.774,155.555 285.645,164.955 289.5,174 C303.285,206.344 307.569,247.7302 308.9,270.6885 " fill="none" id="State-constants" style="stroke: #000000; stroke-width: 0.5; stroke-dasharray: 7.0,7.0;"/><polygon fill="#000000" points="309.167,275.8407,312.6964,266.646,308.9085,270.8474,304.7071,267.0595,309.167,275.8407" style="stroke: #000000; stroke-width: 0.5;"/><!--link State to Input--><path d="M264.77,149.112 C263.922,155.046 262.886,162.296 261.958,168.792 " fill="none" id="State-Input" style="stroke: #000000; stroke-width: 0.5; stroke-dasharray: 7.0,7.0;"/><polygon fill="#000000" points="261.21,174.027,266.4426,165.6831,261.9171,169.0773,258.523,164.5518,261.21,174.027" style="stroke: #000000; stroke-width: 0.5;"/><!--link State to Point2D--><path d="M253.382,146.936 C235.072,161.676 202.525,191.255 188.5,225 C182.439,239.5826 180.974,257.6121 180.856,270.6422 " fill="none" id="State-Point2D" style="stroke: #000000; stroke-width: 0.5; stroke-dasharray: 7.0,7.0;"/><polygon fill="#000000" points="180.879,275.8959,184.8399,266.8786,180.8573,270.8959,176.84,266.9134,180.879,275.8959" style="stroke: #000000; stroke-width: 0.5;"/><script type="text/plantuml"><![CDATA[
@startuml

scale max 1920 width
top to bottom direction

skinparam nodesep 12
skinparam ranksep 25
skinparam monochrome true
skinparam shadowing false
skinparam defaultFontName Tahoma
skinparam defaultFontSize 12
skinparam roundCorner 6
skinparam dpi 150
skinparam arrowColor black
skinparam arrowThickness 0.5
skinparam packageTitleAlignment left

skinparam usecase {
  borderThickness 0.5
}

skinparam rectangle {
  borderThickness 0.5
}

skinparam component {
  borderThickness 1
}


(<b>index</b>)

package "westures-core" {
  (constants)
  (Gesture)
  (Input)
  (Point2D)
  (PointerData)
  (Region)
  (Smoothable)
  (State)
}

(<b>index</b>) -[thickness=1]> (Gesture)
(<b>index</b>) -[thickness=1]> (Point2D)
(<b>index</b>) -[thickness=1]> (Region)
(<b>index</b>) -[thickness=1]> (Smoothable)
(Input) ..> (PointerData)
(PointerData) ..> (constants)
(PointerData) ..> (Point2D)
(Region) ..> (constants)
(Region) ..> (State)
(State) ..> (constants)
(State) ..> (Input)
(State) ..> (Point2D)

@enduml


' View and edit on https://arkit.pro
]]></script></g></svg>