<?xml version="1.0" encoding="UTF-8" standalone="no"?><svg xmlns="http://www.w3.org/2000/svg" xmlns:xlink="http://www.w3.org/1999/xlink" contentScriptType="application/ecmascript" contentStyleType="text/css" height="330px" preserveAspectRatio="none" style="width:384px;height:330px;" version="1.1" viewBox="0 0 384 330" width="384px" zoomAndPan="magnify"><defs/><g><!--cluster westures-core--><path d="M80.5,39 L176.5,39 A4.5,4.5 0 0 1 179.5,42 L186.5,59.4844 L369.5,59.4844 A3,3 0 0 1 372.5,62.4844 L372.5,315 A3,3 0 0 1 369.5,318 L80.5,318 A3,3 0 0 1 77.5,315 L77.5,42 A3,3 0 0 1 80.5,39 " fill="#FFFFFF" style="stroke: #000000; stroke-width: 1.5;"/><line style="stroke: #000000; stroke-width: 1.5;" x1="77.5" x2="186.5" y1="59.4844" y2="59.4844"/><text fill="#000000" font-family="Tahoma, sans-serif" font-size="12" font-weight="bold" lengthAdjust="spacingAndGlyphs" textLength="96" x="81.5" y="53.0059">westures-core</text><ellipse cx="225.6985" cy="136.242" fill="#F8F8F8" rx="32.6985" ry="13.242" style="stroke: #383838; stroke-width: 0.5;"/><text fill="#000000" font-family="Tahoma, sans-serif" font-size="12" lengthAdjust="spacingAndGlyphs" textLength="42" x="204.6985" y="139.9842">Binding</text><ellipse cx="128.3198" cy="85.242" fill="#F8F8F8" rx="34.8198" ry="13.242" style="stroke: #383838; stroke-width: 0.5;"/><text fill="#000000" font-family="Tahoma, sans-serif" font-size="12" lengthAdjust="spacingAndGlyphs" textLength="45" x="105.8198" y="88.9842">Gesture</text><ellipse cx="266.7132" cy="187.242" fill="#F8F8F8" rx="24.2132" ry="13.242" style="stroke: #383838; stroke-width: 0.5;"/><text fill="#000000" font-family="Tahoma, sans-serif" font-size="12" lengthAdjust="spacingAndGlyphs" textLength="30" x="251.7132" y="190.9842">Input</text><ellipse cx="318.663" cy="289.242" fill="#F8F8F8" rx="29.163" ry="13.242" style="stroke: #383838; stroke-width: 0.5;"/><text fill="#000000" font-family="Tahoma, sans-serif" font-size="12" lengthAdjust="spacingAndGlyphs" textLength="37" x="300.163" y="292.9842">PHASE</text><ellipse cx="188.3198" cy="289.242" fill="#F8F8F8" rx="34.8198" ry="13.242" style="stroke: #383838; stroke-width: 0.5;"/><text fill="#000000" font-family="Tahoma, sans-serif" font-size="12" lengthAdjust="spacingAndGlyphs" textLength="45" x="165.8198" y="292.9842">Point2D</text><ellipse cx="253.3762" cy="238.242" fill="#F8F8F8" rx="50.3762" ry="13.242" style="stroke: #383838; stroke-width: 0.5;"/><text fill="#000000" font-family="Tahoma, sans-serif" font-size="12" lengthAdjust="spacingAndGlyphs" textLength="67" x="219.8762" y="241.9842">PointerData</text><ellipse cx="325.5772" cy="85.242" fill="#F8F8F8" rx="30.5772" ry="13.242" style="stroke: #383838; stroke-width: 0.5;"/><text fill="#000000" font-family="Tahoma, sans-serif" font-size="12" lengthAdjust="spacingAndGlyphs" textLength="39" x="306.0772" y="88.9842">Region</text><ellipse cx="229.4975" cy="85.242" fill="#F8F8F8" rx="52.4975" ry="13.242" style="stroke: #383838; stroke-width: 0.5;"/><text fill="#000000" font-family="Tahoma, sans-serif" font-size="12" lengthAdjust="spacingAndGlyphs" textLength="70" x="194.4975" y="88.9842">Smoothable</text><ellipse cx="295.7132" cy="136.242" fill="#F8F8F8" rx="24.2132" ry="13.242" style="stroke: #383838; stroke-width: 0.5;"/><text fill="#000000" font-family="Tahoma, sans-serif" font-size="12" lengthAdjust="spacingAndGlyphs" textLength="30" x="280.7132" y="139.9842">State</text><ellipse cx="33.7487" cy="85.242" fill="#F8F8F8" rx="27.7487" ry="13.242" style="stroke: #383838; stroke-width: 0.5;"/><text fill="#000000" font-family="Tahoma, sans-serif" font-size="12" font-weight="bold" lengthAdjust="spacingAndGlyphs" textLength="35" x="16.2487" y="88.9842">index</text><!--link <b>index</b> to Gesture--><path d="M61.332,85 C70.3348,85 79.3375,85 88.3402,85 " fill="none" id="&lt;b&gt;index&lt;/b&gt;-Gesture" style="stroke: #000000; stroke-width: 1.0;"/><polygon fill="#000000" points="93.3418,85,84.3418,81,88.3418,85,84.3418,89,93.3418,85" style="stroke: #000000; stroke-width: 1.0;"/><!--link <b>index</b> to Point2D--><path d="M42.2776,97.439 C68.4766,131.582 146.16,232.822 176.329,272.1383 " fill="none" id="&lt;b&gt;index&lt;/b&gt;-Point2D" style="stroke: #000000; stroke-width: 1.0;"/><polygon fill="#000000" points="179.433,276.1831,177.1279,266.6078,176.3893,272.2162,170.7809,271.4776,179.433,276.1831" style="stroke: #000000; stroke-width: 1.0;"/><!--link <b>index</b> to Region--><path d="M39.6403,72.316 C48.178,56.326 65.3007,29.589 89,18.5 C108.423,9.411 263.137,8.299 282,18.5 C300.915,28.73 312.923,51.156 319.423,67.134 " fill="none" id="&lt;b&gt;index&lt;/b&gt;-Region" style="stroke: #000000; stroke-width: 1.0;"/><polygon fill="#000000" points="321.265,71.865,321.7272,62.027,319.451,67.2057,314.2723,64.9294,321.265,71.865" style="stroke: #000000; stroke-width: 1.0;"/><!--link <b>index</b> to Smoothable--><path d="M39.6403,72.316 C48.178,56.326 65.3007,29.589 89,18.5 C118.789,4.561 132.615,5.914 163,18.5 C186.853,28.38 206.612,51.428 218.233,67.606 " fill="none" id="&lt;b&gt;index&lt;/b&gt;-Smoothable" style="stroke: #000000; stroke-width: 1.0;"/><polygon fill="#000000" points="221.291,71.971,219.4027,62.3049,218.422,67.876,212.8508,66.8953,221.291,71.971" style="stroke: #000000; stroke-width: 1.0;"/><!--link Input to PointerData--><path d="M263.287,200.112 C261.736,205.958 259.846,213.079 258.143,219.501 " fill="none" id="Input-PointerData" style="stroke: #000000; stroke-width: 0.5; stroke-dasharray: 7.0,7.0;"/><polygon fill="#000000" points="256.767,224.687,262.9422,217.0145,258.0498,219.8544,255.2099,214.962,256.767,224.687" style="stroke: #000000; stroke-width: 0.5;"/><!--link PointerData to PHASE--><path d="M268.904,250.6123 C278.365,257.7441 290.527,266.9126 300.44,274.3853 " fill="none" id="PointerData-PHASE" style="stroke: #000000; stroke-width: 0.5; stroke-dasharray: 7.0,7.0;"/><polygon fill="#000000" points="304.536,277.4732,299.7573,268.8614,300.5434,274.4633,294.9415,275.2495,304.536,277.4732" style="stroke: #000000; stroke-width: 0.5;"/><!--link PointerData to Point2D--><path d="M238.096,250.6123 C228.767,257.645 216.81,266.6584 206.975,274.073 " fill="none" id="PointerData-Point2D" style="stroke: #000000; stroke-width: 0.5; stroke-dasharray: 7.0,7.0;"/><polygon fill="#000000" points="202.903,277.1424,212.4975,274.9187,206.8956,274.1325,207.6817,268.5306,202.903,277.1424" style="stroke: #000000; stroke-width: 0.5;"/><!--link Region to Binding--><path d="M306.219,95.448 C290.137,103.328 267.132,114.6 249.793,123.097 " fill="none" id="Region-Binding" style="stroke: #000000; stroke-width: 0.5; stroke-dasharray: 7.0,7.0;"/><polygon fill="#000000" points="245.063,125.414,254.9049,125.0448,249.5527,123.2134,251.384,117.8612,245.063,125.414" style="stroke: #000000; stroke-width: 0.5;"/><!--link Region to PHASE--><path d="M325.917,98.332 C326.139,105.526 326.389,114.776 326.5,123 C326.656,134.555 326.832,137.449 326.5,149 C325.242,192.761 321.76,244.1765 319.83,270.5112 " fill="none" id="Region-PHASE" style="stroke: #000000; stroke-width: 0.5; stroke-dasharray: 7.0,7.0;"/><polygon fill="#000000" points="319.443,275.7382,324.0962,267.0579,319.8119,270.7518,316.118,266.4676,319.443,275.7382" style="stroke: #000000; stroke-width: 0.5;"/><!--link Region to State--><path d="M318.238,97.862 C314.405,104.121 309.645,111.896 305.472,118.712 " fill="none" id="Region-State" style="stroke: #000000; stroke-width: 0.5; stroke-dasharray: 7.0,7.0;"/><polygon fill="#000000" points="302.695,123.248,310.805,117.6599,305.3052,118.9834,303.9817,113.4835,302.695,123.248" style="stroke: #000000; stroke-width: 0.5;"/><!--link State to Input--><path d="M288.627,148.612 C284.871,154.959 280.161,162.918 276.052,169.86 " fill="none" id="State-Input" style="stroke: #000000; stroke-width: 0.5; stroke-dasharray: 7.0,7.0;"/><polygon fill="#000000" points="273.323,174.471,281.3483,168.7619,275.869,170.1677,274.4631,164.6884,273.323,174.471" style="stroke: #000000; stroke-width: 0.5;"/><!--link State to PHASE--><path d="M297.751,149.217 C300.84,166.186 306.467,197.866 310.5,225 C312.798,240.4585 315.004,258.1135 316.515,270.793 " fill="none" id="State-PHASE" style="stroke: #000000; stroke-width: 0.5; stroke-dasharray: 7.0,7.0;"/><polygon fill="#000000" points="317.119,275.9015,320.0356,266.4944,316.5325,270.936,312.0908,267.4329,317.119,275.9015" style="stroke: #000000; stroke-width: 0.5;"/><!--link State to Point2D--><path d="M278.673,145.502 C266.254,152.243 249.35,162.433 236.5,174 C215.09,193.273 207.604,198.419 196.5,225 C190.402,239.5988 188.626,257.6263 188.244,270.6516 " fill="none" id="State-Point2D" style="stroke: #000000; stroke-width: 0.5; stroke-dasharray: 7.0,7.0;"/><polygon fill="#000000" points="188.157,275.903,192.3061,266.9708,188.2402,270.9037,184.3072,266.8377,188.157,275.903" style="stroke: #000000; stroke-width: 0.5;"/><script type="text/plantuml"><![CDATA[
@startuml

scale max 1920 width
top to bottom direction

skinparam nodesep 13
skinparam ranksep 25
skinparam monochrome true
skinparam shadowing false
skinparam defaultFontName Tahoma
skinparam defaultFontSize 12
skinparam roundCorner 6
skinparam dpi 150
skinparam arrowColor black
skinparam arrowThickness 0.5
skinparam packageTitleAlignment left

skinparam usecase {
  borderThickness 0.5
}

skinparam rectangle {
  borderThickness 0.5
}

skinparam component {
  borderThickness 1
}


(<b>index</b>)

package "westures-core" {
  (Binding)
  (Gesture)
  (Input)
  (PHASE)
  (Point2D)
  (PointerData)
  (Region)
  (Smoothable)
  (State)
}

(<b>index</b>) -[thickness=1]> (Gesture)
(<b>index</b>) -[thickness=1]> (Point2D)
(<b>index</b>) -[thickness=1]> (Region)
(<b>index</b>) -[thickness=1]> (Smoothable)
(Input) ..> (PointerData)
(PointerData) ..> (PHASE)
(PointerData) ..> (Point2D)
(Region) ..> (Binding)
(Region) ..> (PHASE)
(Region) ..> (State)
(State) ..> (Input)
(State) ..> (PHASE)
(State) ..> (Point2D)

@enduml


' View and edit on https://arkit.pro
]]></script></g></svg>