<?xml version="1.0" encoding="UTF-8" standalone="no"?><svg xmlns="http://www.w3.org/2000/svg" xmlns:xlink="http://www.w3.org/1999/xlink" contentScriptType="application/ecmascript" contentStyleType="text/css" height="339px" preserveAspectRatio="none" style="width:384px;height:339px;" version="1.1" viewBox="0 0 384 339" width="384px" zoomAndPan="magnify"><defs/><g><!--cluster westures-core--><path d="M79.5,40 L177.5,40 A3,3 0 0 1 179.5,42 L186.5,60.4844 L370.5,60.4844 A2,2 0 0 1 372.5,62.4844 L372.5,325 A2,2 0 0 1 370.5,327 L79.5,327 A2,2 0 0 1 77.5,325 L77.5,42 A2,2 0 0 1 79.5,40 " fill="#FFFFFF" style="stroke: #000000; stroke-width: 1.5;"/><line style="stroke: #000000; stroke-width: 1.5;" x1="77.5" x2="186.5" y1="60.4844" y2="60.4844"/><text fill="#000000" font-family="Tahoma, sans-serif" font-size="12" font-weight="bold" lengthAdjust="spacingAndGlyphs" textLength="96" x="81.5" y="54.0059">westures-core</text><ellipse cx="225.6985" cy="139.242" fill="#F8F8F8" rx="32.6985" ry="13.242" style="stroke: #383838; stroke-width: 0.5;"/><text fill="#000000" font-family="Tahoma, sans-serif" font-size="12" lengthAdjust="spacingAndGlyphs" textLength="42" x="204.6985" y="142.9842">Binding</text><ellipse cx="128.3198" cy="86.242" fill="#F8F8F8" rx="34.8198" ry="13.242" style="stroke: #383838; stroke-width: 0.5;"/><text fill="#000000" font-family="Tahoma, sans-serif" font-size="12" lengthAdjust="spacingAndGlyphs" textLength="45" x="105.8198" y="89.9842">Gesture</text><ellipse cx="266.7132" cy="192.242" fill="#F8F8F8" rx="24.2132" ry="13.242" style="stroke: #383838; stroke-width: 0.5;"/><text fill="#000000" font-family="Tahoma, sans-serif" font-size="12" lengthAdjust="spacingAndGlyphs" textLength="30" x="251.7132" y="195.9842">Input</text><ellipse cx="318.663" cy="298.242" fill="#F8F8F8" rx="29.163" ry="13.242" style="stroke: #383838; stroke-width: 0.5;"/><text fill="#000000" font-family="Tahoma, sans-serif" font-size="12" lengthAdjust="spacingAndGlyphs" textLength="37" x="300.163" y="301.9842">PHASE</text><ellipse cx="188.3198" cy="298.242" fill="#F8F8F8" rx="34.8198" ry="13.242" style="stroke: #383838; stroke-width: 0.5;"/><text fill="#000000" font-family="Tahoma, sans-serif" font-size="12" lengthAdjust="spacingAndGlyphs" textLength="45" x="165.8198" y="301.9842">Point2D</text><ellipse cx="253.3762" cy="245.242" fill="#F8F8F8" rx="50.3762" ry="13.242" style="stroke: #383838; stroke-width: 0.5;"/><text fill="#000000" font-family="Tahoma, sans-serif" font-size="12" lengthAdjust="spacingAndGlyphs" textLength="67" x="219.8762" y="248.9842">PointerData</text><ellipse cx="325.5772" cy="86.242" fill="#F8F8F8" rx="30.5772" ry="13.242" style="stroke: #383838; stroke-width: 0.5;"/><text fill="#000000" font-family="Tahoma, sans-serif" font-size="12" lengthAdjust="spacingAndGlyphs" textLength="39" x="306.0772" y="89.9842">Region</text><ellipse cx="229.4975" cy="86.242" fill="#F8F8F8" rx="52.4975" ry="13.242" style="stroke: #383838; stroke-width: 0.5;"/><text fill="#000000" font-family="Tahoma, sans-serif" font-size="12" lengthAdjust="spacingAndGlyphs" textLength="70" x="194.4975" y="89.9842">Smoothable</text><ellipse cx="295.7132" cy="139.242" fill="#F8F8F8" rx="24.2132" ry="13.242" style="stroke: #383838; stroke-width: 0.5;"/><text fill="#000000" font-family="Tahoma, sans-serif" font-size="12" lengthAdjust="spacingAndGlyphs" textLength="30" x="280.7132" y="142.9842">State</text><ellipse cx="33.7487" cy="86.242" fill="#F8F8F8" rx="27.7487" ry="13.242" style="stroke: #383838; stroke-width: 0.5;"/><text fill="#000000" font-family="Tahoma, sans-serif" font-size="12" font-weight="bold" lengthAdjust="spacingAndGlyphs" textLength="35" x="16.2487" y="89.9842">index</text><!--link <b>index</b> to Gesture--><path d="M61.332,86 C70.3348,86 79.3375,86 88.3402,86 " fill="none" id="&lt;b&gt;index&lt;/b&gt;-Gesture" style="stroke: #000000; stroke-width: 1.0;"/><polygon fill="#000000" points="93.3418,86,84.3418,82,88.3418,86,84.3418,90,93.3418,86" style="stroke: #000000; stroke-width: 1.0;"/><!--link <b>index</b> to Point2D--><path d="M42.0543,98.59 C68.1398,133.931 146.721,240.397 176.702,281.016 " fill="none" id="&lt;b&gt;index&lt;/b&gt;-Point2D" style="stroke: #000000; stroke-width: 1.0;"/><polygon fill="#000000" points="179.781,285.1873,177.6546,275.5707,176.8117,281.1644,171.218,280.3216,179.781,285.1873" style="stroke: #000000; stroke-width: 1.0;"/><!--link <b>index</b> to Region--><path d="M39.5882,73.131 C48.0694,56.907 65.1311,29.776 89,18.5 C108.39,9.34 263.172,8.235 282,18.5 C301.19,28.963 313.191,51.927 319.61,68.156 " fill="none" id="&lt;b&gt;index&lt;/b&gt;-Region" style="stroke: #000000; stroke-width: 1.0;"/><polygon fill="#000000" points="321.425,72.956,321.9823,63.1229,319.6561,68.2794,314.4996,65.9532,321.425,72.956" style="stroke: #000000; stroke-width: 1.0;"/><!--link <b>index</b> to Smoothable--><path d="M39.5882,73.131 C48.0694,56.907 65.1311,29.776 89,18.5 C118.738,4.452 132.662,5.801 163,18.5 C187.135,28.603 206.949,52.206 218.495,68.636 " fill="none" id="&lt;b&gt;index&lt;/b&gt;-Smoothable" style="stroke: #000000; stroke-width: 1.0;"/><polygon fill="#000000" points="221.529,73.062,219.7397,63.377,218.702,68.9379,213.1411,67.9003,221.529,73.062" style="stroke: #000000; stroke-width: 1.0;"/><!--link Input to PointerData--><path d="M263.419,205.086 C261.768,211.565 259.705,219.658 257.889,226.783 " fill="none" id="Input-PointerData" style="stroke: #000000; stroke-width: 0.55; stroke-dasharray: 1.0,3.0;"/><polygon fill="#000000" points="256.559,232,262.6589,224.2675,257.7945,227.1551,254.907,222.2907,256.559,232" style="stroke: #000000; stroke-width: 0.55;"/><!--link PointerData to PHASE--><path d="M268.25,257.5727 C277.82,265.0816 290.352,274.9146 300.507,282.8823 " fill="none" id="PointerData-PHASE" style="stroke: #000000; stroke-width: 0.55; stroke-dasharray: 1.0,3.0;"/><polygon fill="#000000" points="304.698,286.1706,300.0855,277.4686,300.764,283.0846,295.1479,283.7631,304.698,286.1706" style="stroke: #000000; stroke-width: 0.55;"/><!--link PointerData to Point2D--><path d="M238.75,257.5727 C229.311,264.9787 216.991,274.6456 206.912,282.5538 " fill="none" id="PointerData-Point2D" style="stroke: #000000; stroke-width: 0.55; stroke-dasharray: 1.0,3.0;"/><polygon fill="#000000" points="202.744,285.8236,212.2941,283.4161,206.678,282.7376,207.3565,277.1216,202.744,285.8236" style="stroke: #000000; stroke-width: 0.55;"/><!--link Region to Binding--><path d="M306.691,96.593 C290.452,104.874 266.906,116.883 249.347,125.838 " fill="none" id="Region-Binding" style="stroke: #000000; stroke-width: 0.55; stroke-dasharray: 1.0,3.0;"/><polygon fill="#000000" points="244.565,128.277,254.3998,127.7519,249.0193,126.0056,250.7656,120.625,244.565,128.277" style="stroke: #000000; stroke-width: 0.55;"/><!--link Region to PHASE--><path d="M325.896,99.294 C326.123,106.971 326.385,117.06 326.5,126 C326.648,137.555 326.818,140.449 326.5,152 C325.223,198.309 321.658,252.8432 319.747,279.9365 " fill="none" id="Region-PHASE" style="stroke: #000000; stroke-width: 0.55; stroke-dasharray: 1.0,3.0;"/><polygon fill="#000000" points="319.388,284.9787,324.0172,276.2856,319.7432,279.9913,316.0374,275.7173,319.388,284.9787" style="stroke: #000000; stroke-width: 0.55;"/><!--link Region to State--><path d="M318.542,98.829 C314.528,105.652 309.424,114.329 305.04,121.781 " fill="none" id="Region-State" style="stroke: #000000; stroke-width: 0.55; stroke-dasharray: 1.0,3.0;"/><polygon fill="#000000" points="302.42,126.236,310.4299,120.5053,304.9544,121.9259,303.5337,116.4503,302.42,126.236" style="stroke: #000000; stroke-width: 0.55;"/><!--link State to Input--><path d="M288.919,151.573 C284.989,158.485 279.939,167.366 275.627,174.949 " fill="none" id="State-Input" style="stroke: #000000; stroke-width: 0.55; stroke-dasharray: 1.0,3.0;"/><polygon fill="#000000" points="273.055,179.473,280.9812,173.6271,275.5268,175.1267,274.0271,169.6722,273.055,179.473" style="stroke: #000000; stroke-width: 0.55;"/><!--link State to PHASE--><path d="M297.642,152.18 C300.7,169.77 306.399,203.324 310.5,232 C312.81,248.1515 315.044,266.6194 316.561,279.7319 " fill="none" id="State-PHASE" style="stroke: #000000; stroke-width: 0.55; stroke-dasharray: 1.0,3.0;"/><polygon fill="#000000" points="317.166,285.0013,320.1139,275.604,316.596,280.0339,312.166,276.516,317.166,285.0013" style="stroke: #000000; stroke-width: 0.55;"/><!--link State to Point2D--><path d="M279.161,148.763 C266.681,155.917 249.476,166.81 236.5,179 C214.991,199.206 207.569,204.643 196.5,232 C190.326,247.2596 188.576,266.0492 188.222,279.4952 " fill="none" id="State-Point2D" style="stroke: #000000; stroke-width: 0.55; stroke-dasharray: 1.0,3.0;"/><polygon fill="#000000" points="188.147,284.5466,192.2795,275.6067,188.2208,279.5471,184.2804,275.4885,188.147,284.5466" style="stroke: #000000; stroke-width: 0.55;"/><script type="text/plantuml"><![CDATA[
@startuml

scale max 1920 width
top to bottom direction

skinparam nodesep 13
skinparam ranksep 27
skinparam monochrome true
skinparam shadowing false
skinparam defaultFontName Tahoma
skinparam defaultFontSize 12
skinparam roundCorner 4
skinparam dpi 150
skinparam arrowColor black
skinparam arrowThickness 0.55
skinparam packageTitleAlignment left

skinparam usecase {
  borderThickness 0.5
}

skinparam rectangle {
  borderThickness 0.5
}

skinparam component {
  borderThickness 1
}


(<b>index</b>)

package "westures-core" {
  (Binding)
  (Gesture)
  (Input)
  (PHASE)
  (Point2D)
  (PointerData)
  (Region)
  (Smoothable)
  (State)
}

(<b>index</b>) -[thickness=1]> (Gesture)
(<b>index</b>) -[thickness=1]> (Point2D)
(<b>index</b>) -[thickness=1]> (Region)
(<b>index</b>) -[thickness=1]> (Smoothable)
(Input) ~~> (PointerData)
(PointerData) ~~> (PHASE)
(PointerData) ~~> (Point2D)
(Region) ~~> (Binding)
(Region) ~~> (PHASE)
(Region) ~~> (State)
(State) ~~> (Input)
(State) ~~> (PHASE)
(State) ~~> (Point2D)

@enduml


' View and edit on https://arkit.pro
]]></script></g></svg>