<?xml version="1.0" encoding="UTF-8" standalone="no"?><svg xmlns="http://www.w3.org/2000/svg" xmlns:xlink="http://www.w3.org/1999/xlink" contentScriptType="application/ecmascript" contentStyleType="text/css" height="266px" preserveAspectRatio="none" style="width:414px;height:266px;" version="1.1" viewBox="0 0 414 266" width="414px" zoomAndPan="magnify"><defs/><g><!--cluster westures-core--><path d="M25,24 L121,24 A4.5,4.5 0 0 1 124,27 L131,44.4844 L399,44.4844 A3,3 0 0 1 402,47.4844 L402,251 A3,3 0 0 1 399,254 L25,254 A3,3 0 0 1 22,251 L22,27 A3,3 0 0 1 25,24 " fill="#FFFFFF" style="stroke: #000000; stroke-width: 1.5;"/><line style="stroke: #000000; stroke-width: 1.5;" x1="22" x2="131" y1="44.4844" y2="44.4844"/><text fill="#000000" font-family="Tahoma, sans-serif" font-size="12" font-weight="bold" lengthAdjust="spacingAndGlyphs" textLength="96" x="26" y="38.0059">westures-core</text><ellipse cx="257.0122" cy="225.242" fill="#F8F8F8" rx="44.0122" ry="13.242" style="stroke: #383838; stroke-width: 0.5;"/><text fill="#000000" font-family="Tahoma, sans-serif" font-size="12" lengthAdjust="spacingAndGlyphs" textLength="58" x="228.0122" y="228.9842">constants</text><ellipse cx="203.7696" cy="71.242" fill="#F8F8F8" rx="39.7696" ry="13.242" style="stroke: #383838; stroke-width: 0.5;"/><text fill="#000000" font-family="Tahoma, sans-serif" font-size="12" font-weight="bold" lengthAdjust="spacingAndGlyphs" textLength="52" x="177.7696" y="74.9842">Gesture</text><ellipse cx="321.2132" cy="123.242" fill="#F8F8F8" rx="24.2132" ry="13.242" style="stroke: #383838; stroke-width: 0.5;"/><text fill="#000000" font-family="Tahoma, sans-serif" font-size="12" lengthAdjust="spacingAndGlyphs" textLength="30" x="306.2132" y="126.9842">Input</text><ellipse cx="348.8198" cy="225.242" fill="#F8F8F8" rx="34.8198" ry="13.242" style="stroke: #383838; stroke-width: 0.5;"/><text fill="#000000" font-family="Tahoma, sans-serif" font-size="12" lengthAdjust="spacingAndGlyphs" textLength="45" x="326.3198" y="228.9842">Point2D</text><ellipse cx="320.8762" cy="174.242" fill="#F8F8F8" rx="50.3762" ry="13.242" style="stroke: #383838; stroke-width: 0.5;"/><text fill="#000000" font-family="Tahoma, sans-serif" font-size="12" lengthAdjust="spacingAndGlyphs" textLength="67" x="287.3762" y="177.9842">PointerData</text><ellipse cx="290.8198" cy="71.242" fill="#F8F8F8" rx="34.8198" ry="13.242" style="stroke: #383838; stroke-width: 0.5;"/><text fill="#000000" font-family="Tahoma, sans-serif" font-size="12" font-weight="bold" lengthAdjust="spacingAndGlyphs" textLength="45" x="268.3198" y="74.9842">Region</text><ellipse cx="94.9558" cy="70.7912" fill="#F8F8F8" rx="56.9558" ry="13.7912" style="stroke: #383838; stroke-width: 0.5;"/><text fill="#000000" font-family="Tahoma, sans-serif" font-size="12" font-weight="bold" lengthAdjust="spacingAndGlyphs" textLength="80" x="54.9558" y="74.5334">Smoothable</text><ellipse cx="362.2132" cy="71.242" fill="#F8F8F8" rx="24.2132" ry="13.242" style="stroke: #383838; stroke-width: 0.5;"/><text fill="#000000" font-family="Tahoma, sans-serif" font-size="12" lengthAdjust="spacingAndGlyphs" textLength="30" x="347.2132" y="74.9842">State</text><ellipse cx="223.9706" cy="174.242" fill="#F8F8F8" rx="19.9706" ry="13.242" style="stroke: #383838; stroke-width: 0.5;"/><text fill="#000000" font-family="Tahoma, sans-serif" font-size="12" lengthAdjust="spacingAndGlyphs" textLength="24" x="211.9706" y="177.9842">utils</text><!--link Input to PointerData--><path d="M321,136.112 C321,141.958 321,149.079 321,155.501 " fill="none" id="Input-PointerData" style="stroke: #000000; stroke-width: 0.5; stroke-dasharray: 7.0,7.0;"/><polygon fill="#000000" points="321,160.687,325,151.687,321,155.687,317,151.687,321,160.687" style="stroke: #000000; stroke-width: 0.5;"/><!--link Input to utils--><path d="M304.104,132.535 C287.334,141.007 261.635,153.988 243.89,162.953 " fill="none" id="Input-utils" style="stroke: #000000; stroke-width: 0.5; stroke-dasharray: 7.0,7.0;"/><polygon fill="#000000" points="239.11,165.367,248.9467,164.8771,243.5724,163.1115,245.3379,157.7372,239.11,165.367" style="stroke: #000000; stroke-width: 0.5;"/><!--link PointerData to constants--><path d="M305.833,186.6123 C296.986,193.3859 285.739,201.9968 276.269,209.2471 " fill="none" id="PointerData-constants" style="stroke: #000000; stroke-width: 0.5; stroke-dasharray: 7.0,7.0;"/><polygon fill="#000000" points="272.058,212.471,281.6356,210.1753,276.0279,209.4312,276.7719,203.8235,272.058,212.471" style="stroke: #000000; stroke-width: 0.5;"/><!--link PointerData to Point2D--><path d="M327.921,187.1124 C331.448,193.2835 335.787,200.8776 339.61,207.568 " fill="none" id="PointerData-Point2D" style="stroke: #000000; stroke-width: 0.5; stroke-dasharray: 7.0,7.0;"/><polygon fill="#000000" points="342.158,212.027,341.1659,202.2282,339.6774,207.6857,334.2199,206.1972,342.158,212.027" style="stroke: #000000; stroke-width: 0.5;"/><!--link <b>Region</b> to constants--><path d="M272.182,82.16 C248.653,96.19 210.004,124.014 198,161 C194.433,171.9912 192.406,176.8888 198,187 C204.146,198.1084 215.176,206.3289 226.049,212.1617 " fill="none" id="&lt;b&gt;Region&lt;/b&gt;-constants" style="stroke: #000000; stroke-width: 1.0; stroke-dasharray: 7.0,7.0;"/><polygon fill="#000000" points="230.685,214.5167,224.4743,206.873,226.2277,212.2512,220.8495,214.0046,230.685,214.5167" style="stroke: #000000; stroke-width: 1.0;"/><!--link <b>Region</b> to State--><path d="M326.223,71 C328.424,71 330.625,71 332.826,71 " fill="none" id="&lt;b&gt;Region&lt;/b&gt;-State" style="stroke: #000000; stroke-width: 1.0; stroke-dasharray: 7.0,7.0;"/><polygon fill="#000000" points="337.962,71,328.962,67,332.962,71,328.962,75,337.962,71" style="stroke: #000000; stroke-width: 1.0;"/><!--link <b>Region</b> to utils--><path d="M277.483,83.322 C269.623,90.404 259.932,100.048 253,110 C242.915,124.479 234.873,143.026 229.84,156.239 " fill="none" id="&lt;b&gt;Region&lt;/b&gt;-utils" style="stroke: #000000; stroke-width: 1.0; stroke-dasharray: 7.0,7.0;"/><polygon fill="#000000" points="227.997,161.197,234.8836,154.1561,229.7401,156.5107,227.3855,151.3671,227.997,161.197" style="stroke: #000000; stroke-width: 1.0;"/><!--link State to constants--><path d="M344.191,80.024 C325.907,88.52 299.025,101.813 291,110 C265.059,136.464 258.779,181.8342 257.343,206.6074 " fill="none" id="State-constants" style="stroke: #000000; stroke-width: 0.5; stroke-dasharray: 7.0,7.0;"/><polygon fill="#000000" points="257.094,211.8577,261.5161,203.0574,257.331,206.8633,253.5251,202.6782,257.094,211.8577" style="stroke: #000000; stroke-width: 0.5;"/><!--link State to Input--><path d="M352.901,83.097 C347.168,90.088 339.691,99.206 333.417,106.857 " fill="none" id="State-Input" style="stroke: #000000; stroke-width: 0.5; stroke-dasharray: 7.0,7.0;"/><polygon fill="#000000" points="330.074,110.934,338.8748,106.513,333.2453,107.0684,332.6899,101.4389,330.074,110.934" style="stroke: #000000; stroke-width: 0.5;"/><!--link State to Point2D--><path d="M367.134,83.771 C375.63,104.986 390.497,150.797 378,187 C375.274,194.8981 370.09,202.3964 364.851,208.5515 " fill="none" id="State-Point2D" style="stroke: #000000; stroke-width: 0.5; stroke-dasharray: 7.0,7.0;"/><polygon fill="#000000" points="361.244,212.5866,370.2238,208.5415,364.5759,208.8585,364.2589,203.2105,361.244,212.5866" style="stroke: #000000; stroke-width: 0.5;"/><script type="text/plantuml"><![CDATA[
@startuml

scale max 1920 width
top to bottom direction

skinparam nodesep 12
skinparam ranksep 25
skinparam monochrome true
skinparam shadowing false
skinparam defaultFontName Tahoma
skinparam defaultFontSize 12
skinparam roundCorner 6
skinparam dpi 150
skinparam arrowColor black
skinparam arrowThickness 0.5
skinparam packageTitleAlignment left

skinparam usecase {
  borderThickness 0.5
}

skinparam rectangle {
  borderThickness 0.5
}

skinparam component {
  borderThickness 1
}



package "westures-core" {
  (constants)
  (<b>Gesture</b>)
  (Input)
  (Point2D)
  (PointerData)
  (<b>Region</b>)
  (<b>Smoothable</b>)
  (State)
  (utils)
}

(Input) ..> (PointerData)
(Input) ..> (utils)
(PointerData) ..> (constants)
(PointerData) ..> (Point2D)
(<b>Region</b>) .[thickness=1]> (constants)
(<b>Region</b>) .[thickness=1]> (State)
(<b>Region</b>) .[thickness=1]> (utils)
(State) ..> (constants)
(State) ..> (Input)
(State) ..> (Point2D)

@enduml


' View and edit on https://arkit.pro
]]></script></g></svg>